<?xml version="1.0" encoding="utf-8"?>
<!-- Generator: Adobe Illustrator 16.0.0, SVG Export Plug-In . SVG Version: 6.00 Build 0)  -->
<!DOCTYPE svg PUBLIC "-//W3C//DTD SVG 1.1//EN" "http://www.w3.org/Graphics/SVG/1.1/DTD/svg11.dtd">
<svg version="1.1" id="Layer_1" xmlns="http://www.w3.org/2000/svg" xmlns:xlink="http://www.w3.org/1999/xlink" x="0px" y="0px"
	 width="992.129px" height="793.7px" viewBox="0 0 992.129 793.7" enable-background="new 0 0 992.129 793.7" xml:space="preserve">
<g>
	<g>
		<path fill="#151551" d="M191.463,337.973c0.489-2.771,1.468-4.238,2.771-4.238c1.305,0,2.283,0.814,4.403,5.055l44.514,90.658
			l44.352-91.801c1.304-2.607,2.119-3.912,3.587-3.912s2.445,1.631,2.935,5.055l14.838,99.789
			c1.468,10.273,3.099,15.002,7.99,16.469c4.729,1.467,7.989,1.631,10.109,1.631c1.468,0,2.608,0.162,2.608,1.141
			c0,1.305-1.956,1.795-4.239,1.795c-4.076,0-26.578-0.326-33.1-0.816c-3.751-0.326-4.729-0.814-4.729-1.793
			c0-0.816,0.651-1.305,1.793-1.793c0.979-0.326,1.468-2.447,0.815-7.012l-9.783-70.93h-0.652l-35.546,72.723
			c-3.75,7.664-4.565,9.131-6.033,9.131s-3.098-3.26-5.707-8.152c-3.913-7.5-16.795-32.447-18.751-37.014
			c-1.468-3.424-11.251-22.664-16.958-34.895h-0.652l-8.479,63.592c-0.326,2.936-0.489,5.055-0.489,7.664
			c0,3.098,2.119,4.566,4.892,5.219c2.935,0.65,5.218,0.814,6.849,0.814c1.304,0,2.445,0.326,2.445,1.141
			c0,1.469-1.468,1.795-3.913,1.795c-6.849,0-14.186-0.49-17.121-0.49c-3.098,0-10.925,0.49-16.143,0.49
			c-1.63,0-2.935-0.326-2.935-1.795c0-0.814,0.979-1.141,2.608-1.141c1.305,0,2.446,0,4.892-0.488
			c4.565-0.979,5.87-7.338,6.686-12.883L191.463,337.973z"/>
		<path fill="#151551" d="M373.65,417.707c-0.815,0-1.142,0.326-1.468,1.305l-8.805,22.338c-1.631,4.078-2.446,7.99-2.446,9.947
			c0,2.936,1.468,5.055,6.522,5.055h2.446c1.956,0,2.445,0.326,2.445,1.305c0,1.305-0.979,1.631-2.771,1.631
			c-5.218,0-12.229-0.49-17.284-0.49c-1.794,0-10.762,0.49-19.24,0.49c-2.12,0-3.099-0.326-3.099-1.631
			c0-0.979,0.652-1.305,1.957-1.305c1.468,0,3.75-0.164,5.055-0.326c7.5-0.979,10.599-6.521,13.859-14.676l40.927-101.094
			c1.957-4.729,2.936-6.521,4.566-6.521c1.467,0,2.445,1.467,4.076,5.217c3.913,8.969,30.002,74.191,40.438,98.975
			c6.196,14.676,10.925,16.959,14.349,17.773c2.446,0.488,4.892,0.652,6.849,0.652c1.305,0,2.12,0.162,2.12,1.305
			c0,1.305-1.468,1.631-7.501,1.631c-5.87,0-17.773,0-30.817-0.326c-2.936-0.164-4.892-0.164-4.892-1.305
			c0-0.979,0.652-1.305,2.282-1.469c1.142-0.324,2.283-1.793,1.468-3.75l-13.044-33.588c-0.326-0.816-0.815-1.143-1.631-1.143
			H373.65z M406.913,409.555c0.815,0,0.979-0.488,0.815-0.979l-14.675-40.111c-0.163-0.652-0.326-1.467-0.815-1.467
			s-0.814,0.814-0.979,1.467l-15.001,39.949c-0.163,0.652,0,1.141,0.652,1.141H406.913z"/>
		<path fill="#151551" d="M473.712,443.797c-15.979-14.023-20.219-32.285-20.219-48.102c0-11.088,3.424-30.328,19.077-44.678
			c11.74-10.762,27.23-17.283,51.526-17.283c10.109,0,16.143,0.652,23.643,1.631c6.196,0.814,11.414,2.281,16.306,2.771
			c1.794,0.162,2.446,0.979,2.446,1.957c0,1.303-0.489,3.26-0.815,8.967c-0.326,5.381-0.163,14.35-0.489,17.611
			c-0.163,2.445-0.489,3.75-1.957,3.75c-1.305,0-1.63-1.305-1.63-3.588c-0.163-5.055-2.283-10.762-6.359-15.002
			c-5.381-5.705-18.1-10.109-33.101-10.109c-14.186,0-23.48,3.588-30.654,10.109c-11.903,10.926-15.002,26.416-15.002,42.232
			c0,38.807,29.514,58.047,51.363,58.047c14.512,0,23.317-1.629,29.839-9.131c2.772-3.098,4.892-7.826,5.544-10.762
			c0.489-2.607,0.815-3.26,2.12-3.26c1.142,0,1.468,1.141,1.468,2.445c0,1.957-1.957,16.143-3.588,21.686
			c-0.815,2.773-1.467,3.588-4.239,4.729c-6.522,2.609-18.914,3.75-29.35,3.75C507.302,461.568,488.55,456.678,473.712,443.797z"/>
		<path fill="#151551" d="M601.709,383.303c0-24.785,0-29.35-0.326-34.568c-0.326-5.543-1.957-8.314-5.544-9.131
			c-1.794-0.488-3.913-0.652-5.87-0.652c-1.631,0-2.608-0.326-2.608-1.631c0-0.979,1.304-1.303,3.913-1.305
			c6.196,0,16.469,0.49,21.197,0.49c4.076,0,13.696-0.49,19.893-0.488c2.12,0,3.424,0.324,3.424,1.303
			c0,1.305-0.978,1.631-2.608,1.631s-2.936,0.164-4.892,0.49c-4.402,0.814-5.707,3.586-6.033,9.293
			c-0.326,5.219-0.326,9.783-0.326,34.568V412c0,15.816,0,28.697,0.652,35.709c0.489,4.402,1.631,7.338,6.522,7.99
			c2.282,0.326,5.869,0.652,8.315,0.652c1.794,0,2.609,0.488,2.609,1.305c0,1.141-1.305,1.631-3.099,1.631
			c-10.762,0-21.034-0.49-25.437-0.49c-3.75,0-14.022,0.49-20.545,0.49c-2.12,0-3.261-0.49-3.261-1.631
			c0-0.816,0.651-1.305,2.608-1.305c2.446,0,4.402-0.326,5.87-0.652c3.261-0.652,4.239-3.424,4.729-8.152
			c0.815-6.85,0.815-19.73,0.815-35.547V383.303z"/>
		<path fill="#151551" d="M695.792,412c0,20.871,0,32.123,3.424,35.057c2.772,2.447,7.012,3.588,19.73,3.588
			c8.642,0,15.001-0.162,19.077-4.566c1.957-2.119,3.913-6.684,4.239-9.783c0.163-1.467,0.489-2.445,1.794-2.445
			c1.141,0,1.304,0.816,1.304,2.771c0,1.795-1.141,14.023-2.445,18.752c-0.979,3.588-1.794,4.402-10.272,4.402
			c-11.74,0-20.219-0.326-27.557-0.488c-7.337-0.326-13.207-0.49-19.893-0.49c-1.794,0-5.381,0-9.294,0.164
			c-3.751,0-7.99,0.326-11.251,0.326c-2.12,0-3.261-0.49-3.261-1.631c0-0.816,0.651-1.305,2.608-1.305
			c2.446,0,4.402-0.326,5.87-0.652c3.261-0.652,4.076-4.24,4.729-8.969c0.815-6.848,0.815-19.729,0.815-34.73v-28.697
			c0-24.785,0-29.35-0.326-34.568c-0.326-5.543-1.631-8.152-7.012-9.293c-1.304-0.326-3.261-0.49-5.381-0.49
			c-1.793,0-2.771-0.326-2.771-1.467c0-1.143,1.142-1.467,3.587-1.469c7.664,0,17.937,0.49,22.339,0.49
			c3.913,0,15.816-0.49,22.176-0.488c2.282,0,3.424,0.324,3.424,1.467c0,1.141-0.979,1.467-2.935,1.467
			c-1.794,0-4.403,0.164-6.359,0.49c-4.402,0.814-5.707,3.586-6.033,9.293c-0.326,5.219-0.326,9.783-0.326,34.568V412z"/>
		<path fill="#151551" d="M774.058,383.303c0-24.785,0-29.35-0.326-34.568c-0.326-5.543-1.631-8.152-7.012-9.293
			c-1.304-0.326-4.076-0.49-6.359-0.49c-1.793,0-2.771-0.326-2.771-1.467c0-1.143,1.142-1.467,3.587-1.467
			c4.403,0,9.132,0.162,13.208,0.162c4.239,0.162,7.989,0.326,10.272,0.326c5.218,0,37.666,0,40.764-0.164
			c3.098-0.324,5.707-0.65,7.012-0.977c0.815-0.164,1.793-0.652,2.608-0.652s0.979,0.652,0.979,1.467
			c0,1.141-0.815,3.098-1.305,10.598c-0.163,1.631-0.489,8.807-0.815,10.762c-0.163,0.816-0.489,1.795-1.63,1.795
			c-1.142,0-1.468-0.816-1.468-2.283c0-1.141-0.163-3.914-0.979-5.869c-1.142-2.936-2.771-4.893-10.925-5.871
			c-2.771-0.326-19.893-0.652-23.153-0.652c-0.815,0-1.142,0.49-1.142,1.631v41.254c0,1.141,0.163,1.793,1.142,1.793
			c3.587,0,22.338,0,26.089-0.326c3.913-0.326,6.359-0.814,7.826-2.445c1.142-1.305,1.794-2.121,2.609-2.121
			c0.652,0,1.141,0.326,1.141,1.305s-0.651,3.588-1.304,11.904c-0.163,3.26-0.652,9.783-0.652,10.924c0,1.305,0,3.098-1.468,3.098
			c-1.142,0-1.468-0.652-1.468-1.467c-0.163-1.631-0.163-3.75-0.651-5.871c-0.815-3.26-3.099-5.705-9.132-6.357
			c-3.098-0.326-19.24-0.49-23.153-0.49c-0.815,0-0.979,0.652-0.979,1.631V412c0,5.545-0.163,20.545,0,25.273
			c0.326,11.252,2.935,13.697,19.566,13.697c4.239,0,11.088,0,15.327-1.957s6.196-5.381,7.338-12.066
			c0.326-1.793,0.652-2.445,1.794-2.445c1.304,0,1.304,1.305,1.304,2.936c0,3.75-1.304,14.838-2.119,18.1
			c-1.142,4.238-2.609,4.238-8.806,4.238c-12.229,0-21.197-0.326-28.208-0.488c-7.012-0.326-12.066-0.49-16.958-0.49
			c-1.794,0-5.381,0-9.294,0.164c-3.751,0-7.99,0.326-11.251,0.326c-2.12,0-3.261-0.49-3.261-1.631c0-0.816,0.651-1.305,2.608-1.305
			c2.446,0,4.402-0.326,5.87-0.652c3.261-0.652,4.076-4.24,4.729-8.969c0.815-6.848,0.815-19.729,0.815-34.73V383.303z"/>
	</g>
	<g>
		<g>
			<path fill="#151551" d="M181.578,488.91c0.094,0.848,0.259,2.166,1.271,2.494c0.682,0.213,1.294,0.213,1.529,0.213
				c0.118,0,0.188,0.023,0.188,0.117c0,0.141-0.212,0.211-0.494,0.211c-0.518,0-3.059-0.023-3.93-0.094
				c-0.541-0.047-0.659-0.117-0.659-0.234c0-0.094,0.047-0.143,0.165-0.166c0.117-0.023,0.141-0.422,0.094-0.846l-1.129-12.213
				h-0.07l-5.765,12.236c-0.494,1.035-0.565,1.246-0.776,1.246c-0.165,0-0.283-0.234-0.729-1.082
				c-0.612-1.152-2.635-5.223-2.753-5.459c-0.212-0.424-2.847-6.07-3.106-6.705h-0.094l-0.941,10.918
				c-0.023,0.375-0.023,0.799-0.023,1.199c0,0.354,0.259,0.658,0.611,0.729c0.4,0.096,0.753,0.119,0.895,0.119
				c0.094,0,0.188,0.047,0.188,0.117c0,0.164-0.141,0.211-0.423,0.211c-0.871,0-2-0.07-2.188-0.07c-0.211,0-1.341,0.07-1.976,0.07
				c-0.235,0-0.4-0.047-0.4-0.211c0-0.07,0.118-0.117,0.235-0.117c0.188,0,0.353,0,0.706-0.07c0.776-0.143,0.847-1.061,0.941-1.953
				l1.694-15.342c0.023-0.258,0.118-0.424,0.259-0.424s0.235,0.094,0.353,0.354l7.2,14.799l6.917-14.775
				c0.094-0.211,0.188-0.377,0.353-0.377s0.235,0.189,0.282,0.637L181.578,488.91z"/>
			<path fill="#151551" d="M192.638,474.723c0.283-0.775,0.376-0.918,0.518-0.918c0.141,0,0.235,0.119,0.518,0.848
				c0.353,0.895,4.047,10.611,5.482,14.188c0.847,2.094,1.53,2.471,2.023,2.611c0.353,0.119,0.706,0.143,0.941,0.143
				c0.141,0,0.235,0.023,0.235,0.141c0,0.141-0.212,0.188-0.471,0.188c-0.353,0-2.07,0-3.694-0.047
				c-0.447-0.023-0.706-0.023-0.706-0.164c0-0.094,0.071-0.141,0.165-0.164c0.141-0.047,0.283-0.26,0.141-0.637l-2.188-5.787
				c-0.047-0.094-0.094-0.141-0.212-0.141h-5.059c-0.118,0-0.188,0.07-0.235,0.188l-1.412,4.164c-0.212,0.588-0.33,1.154-0.33,1.576
				c0,0.471,0.494,0.684,0.894,0.684h0.235c0.165,0,0.235,0.047,0.235,0.141c0,0.141-0.141,0.188-0.353,0.188
				c-0.564,0-1.576-0.07-1.835-0.07s-1.553,0.07-2.659,0.07c-0.306,0-0.447-0.047-0.447-0.188c0-0.094,0.094-0.141,0.212-0.141
				c0.165,0,0.494-0.023,0.682-0.047c1.083-0.143,1.553-1.035,1.977-2.213L192.638,474.723z M195.085,484.135
				c0.118,0,0.118-0.07,0.094-0.164l-2.235-6.354c-0.118-0.354-0.235-0.354-0.353,0l-2.071,6.354c-0.047,0.117,0,0.164,0.071,0.164
				H195.085z"/>
			<path fill="#151551" d="M209.087,485.1c0,2.258,0,4.117,0.118,5.105c0.071,0.682,0.212,1.199,0.918,1.295
				c0.329,0.047,0.847,0.094,1.059,0.094c0.141,0,0.188,0.07,0.188,0.141c0,0.117-0.117,0.188-0.376,0.188
				c-1.294,0-2.777-0.07-2.895-0.07c-0.117,0-1.6,0.07-2.306,0.07c-0.259,0-0.376-0.047-0.376-0.188c0-0.07,0.047-0.141,0.188-0.141
				c0.211,0,0.494-0.047,0.706-0.094c0.471-0.096,0.588-0.613,0.683-1.295c0.118-0.988,0.118-2.848,0.118-5.105v-9.953l-3.482,0.047
				c-1.459,0.023-2.023,0.188-2.4,0.754c-0.259,0.398-0.33,0.564-0.4,0.729c-0.07,0.188-0.141,0.234-0.235,0.234
				c-0.071,0-0.118-0.07-0.118-0.211c0-0.234,0.47-2.258,0.518-2.447c0.047-0.141,0.141-0.447,0.235-0.447
				c0.165,0,0.4,0.236,1.035,0.283c0.682,0.07,1.576,0.117,1.859,0.117h8.823c0.753,0,1.294-0.047,1.67-0.117
				c0.353-0.047,0.565-0.117,0.659-0.117c0.118,0,0.118,0.141,0.118,0.281c0,0.707-0.071,2.33-0.071,2.588
				c0,0.213-0.071,0.307-0.165,0.307c-0.118,0-0.165-0.07-0.188-0.4l-0.023-0.258c-0.071-0.707-0.635-1.248-2.894-1.295
				l-2.965-0.047V485.1z"/>
			<path fill="#151551" d="M234.547,485.1c0,2.258,0,4.117,0.118,5.105c0.07,0.682,0.211,1.199,0.917,1.295
				c0.33,0.047,0.847,0.094,1.059,0.094c0.141,0,0.188,0.07,0.188,0.141c0,0.117-0.118,0.188-0.376,0.188
				c-1.294,0-2.776-0.07-2.894-0.07s-1.6,0.07-2.306,0.07c-0.259,0-0.376-0.047-0.376-0.188c0-0.07,0.047-0.141,0.188-0.141
				c0.212,0,0.494-0.047,0.706-0.094c0.471-0.096,0.588-0.613,0.683-1.295c0.118-0.988,0.118-2.848,0.118-5.105v-2.471
				c0-0.094-0.071-0.141-0.141-0.141h-9.977c-0.07,0-0.141,0.023-0.141,0.141v2.471c0,2.258,0,4.117,0.118,5.105
				c0.071,0.682,0.212,1.199,0.917,1.295c0.33,0.047,0.847,0.094,1.059,0.094c0.141,0,0.188,0.07,0.188,0.141
				c0,0.117-0.118,0.188-0.376,0.188c-1.294,0-2.776-0.07-2.894-0.07s-1.6,0.07-2.306,0.07c-0.259,0-0.376-0.047-0.376-0.188
				c0-0.07,0.047-0.141,0.188-0.141c0.212,0,0.494-0.047,0.706-0.094c0.471-0.096,0.588-0.613,0.682-1.295
				c0.118-0.988,0.118-2.848,0.118-5.105v-4.141c0-3.672,0-4.33-0.047-5.084c-0.047-0.799-0.235-1.176-1.012-1.34
				c-0.188-0.047-0.588-0.07-0.8-0.07c-0.094,0-0.188-0.047-0.188-0.143c0-0.141,0.118-0.188,0.376-0.188
				c1.059,0,2.541,0.07,2.659,0.07s1.6-0.07,2.306-0.07c0.259,0,0.376,0.047,0.376,0.188c0,0.096-0.094,0.143-0.188,0.143
				c-0.165,0-0.306,0.023-0.588,0.07c-0.635,0.117-0.823,0.518-0.87,1.34c-0.047,0.754-0.047,1.412-0.047,5.084v0.494
				c0,0.117,0.071,0.141,0.141,0.141h9.977c0.07,0,0.141-0.023,0.141-0.141v-0.494c0-3.672,0-4.33-0.047-5.084
				c-0.047-0.799-0.235-1.176-1.012-1.34c-0.188-0.047-0.588-0.07-0.8-0.07c-0.094,0-0.188-0.047-0.188-0.143
				c0-0.141,0.118-0.188,0.376-0.188c1.059,0,2.541,0.07,2.659,0.07s1.6-0.07,2.306-0.07c0.259,0,0.376,0.047,0.376,0.188
				c0,0.096-0.094,0.143-0.188,0.143c-0.165,0-0.306,0.023-0.588,0.07c-0.635,0.117-0.824,0.518-0.871,1.34
				c-0.047,0.754-0.047,1.412-0.047,5.084V485.1z"/>
			<path fill="#151551" d="M242.925,480.959c0-3.672,0-4.33-0.047-5.084c-0.047-0.799-0.235-1.176-1.012-1.34
				c-0.188-0.047-0.588-0.07-0.8-0.07c-0.094,0-0.188-0.047-0.188-0.143c0-0.141,0.118-0.188,0.376-0.188
				c0.541,0,1.176,0,1.694,0.023l0.964,0.047c0.165,0,4.847,0,5.388-0.023c0.447-0.023,0.824-0.07,1.012-0.117
				c0.118-0.023,0.212-0.117,0.33-0.117c0.07,0,0.094,0.094,0.094,0.211c0,0.164-0.118,0.447-0.188,1.105
				c-0.023,0.236-0.07,1.271-0.118,1.553c-0.023,0.119-0.07,0.26-0.165,0.26c-0.141,0-0.188-0.117-0.188-0.307
				c0-0.164-0.023-0.564-0.141-0.846c-0.165-0.377-0.4-0.66-1.67-0.801c-0.4-0.047-2.965-0.07-3.224-0.07
				c-0.094,0-0.141,0.07-0.141,0.234v6.494c0,0.166,0.023,0.236,0.141,0.236c0.306,0,3.2,0,3.741-0.047
				c0.565-0.049,0.894-0.096,1.106-0.33c0.165-0.188,0.259-0.307,0.353-0.307c0.07,0,0.118,0.047,0.118,0.189
				c0,0.141-0.118,0.541-0.188,1.316c-0.047,0.471-0.094,1.342-0.094,1.506c0,0.189,0,0.447-0.165,0.447
				c-0.118,0-0.165-0.094-0.165-0.211c0-0.236,0-0.471-0.094-0.777c-0.094-0.328-0.306-0.729-1.224-0.822
				c-0.635-0.072-2.964-0.119-3.365-0.119c-0.117,0-0.165,0.07-0.165,0.166v2.07c0,0.799-0.023,3.529,0,4.023
				c0.071,1.623,0.423,1.93,2.729,1.93c0.612,0,1.647,0,2.259-0.26c0.612-0.258,0.894-0.729,1.059-1.693
				c0.047-0.26,0.094-0.354,0.212-0.354c0.141,0,0.141,0.188,0.141,0.354c0,0.188-0.188,1.787-0.306,2.281
				c-0.165,0.613-0.353,0.613-1.271,0.613c-1.765,0-3.059-0.049-3.977-0.072c-0.917-0.047-1.482-0.07-1.835-0.07
				c-0.047,0-0.447,0-0.941,0.023c-0.471,0-1.012,0.047-1.365,0.047c-0.259,0-0.376-0.047-0.376-0.188
				c0-0.07,0.047-0.141,0.188-0.141c0.212,0,0.494-0.047,0.706-0.094c0.471-0.096,0.588-0.613,0.682-1.295
				c0.118-0.988,0.118-2.848,0.118-5.105V480.959z"/>
			<path fill="#151551" d="M274.785,488.91c0.094,0.848,0.259,2.166,1.271,2.494c0.682,0.213,1.294,0.213,1.529,0.213
				c0.118,0,0.188,0.023,0.188,0.117c0,0.141-0.212,0.211-0.494,0.211c-0.518,0-3.059-0.023-3.93-0.094
				c-0.541-0.047-0.659-0.117-0.659-0.234c0-0.094,0.047-0.143,0.165-0.166c0.118-0.023,0.142-0.422,0.094-0.846l-1.129-12.213
				h-0.07l-5.765,12.236c-0.494,1.035-0.565,1.246-0.776,1.246c-0.165,0-0.283-0.234-0.729-1.082
				c-0.612-1.152-2.635-5.223-2.753-5.459c-0.212-0.424-2.847-6.07-3.106-6.705h-0.094l-0.941,10.918
				c-0.023,0.375-0.023,0.799-0.023,1.199c0,0.354,0.259,0.658,0.612,0.729c0.4,0.096,0.753,0.119,0.894,0.119
				c0.094,0,0.188,0.047,0.188,0.117c0,0.164-0.141,0.211-0.423,0.211c-0.871,0-2-0.07-2.188-0.07c-0.211,0-1.341,0.07-1.976,0.07
				c-0.235,0-0.4-0.047-0.4-0.211c0-0.07,0.118-0.117,0.235-0.117c0.188,0,0.353,0,0.706-0.07c0.776-0.143,0.847-1.061,0.941-1.953
				l1.694-15.342c0.023-0.258,0.118-0.424,0.259-0.424s0.235,0.094,0.353,0.354l7.2,14.799l6.917-14.775
				c0.094-0.211,0.188-0.377,0.353-0.377s0.235,0.189,0.282,0.637L274.785,488.91z"/>
			<path fill="#151551" d="M285.846,474.723c0.283-0.775,0.376-0.918,0.518-0.918c0.142,0,0.235,0.119,0.518,0.848
				c0.353,0.895,4.047,10.611,5.482,14.188c0.847,2.094,1.529,2.471,2.023,2.611c0.353,0.119,0.706,0.143,0.941,0.143
				c0.141,0,0.235,0.023,0.235,0.141c0,0.141-0.212,0.188-0.471,0.188c-0.353,0-2.07,0-3.694-0.047
				c-0.447-0.023-0.706-0.023-0.706-0.164c0-0.094,0.071-0.141,0.165-0.164c0.141-0.047,0.283-0.26,0.141-0.637l-2.188-5.787
				c-0.047-0.094-0.094-0.141-0.212-0.141h-5.059c-0.118,0-0.188,0.07-0.235,0.188l-1.412,4.164c-0.212,0.588-0.33,1.154-0.33,1.576
				c0,0.471,0.494,0.684,0.894,0.684h0.235c0.165,0,0.235,0.047,0.235,0.141c0,0.141-0.141,0.188-0.353,0.188
				c-0.564,0-1.576-0.07-1.835-0.07s-1.553,0.07-2.659,0.07c-0.306,0-0.447-0.047-0.447-0.188c0-0.094,0.094-0.141,0.212-0.141
				c0.165,0,0.494-0.023,0.682-0.047c1.083-0.143,1.553-1.035,1.977-2.213L285.846,474.723z M288.293,484.135
				c0.118,0,0.118-0.07,0.094-0.164l-2.235-6.354c-0.118-0.354-0.235-0.354-0.353,0l-2.07,6.354c-0.047,0.117,0,0.164,0.07,0.164
				H288.293z"/>
			<path fill="#151551" d="M302.294,485.1c0,2.258,0,4.117,0.118,5.105c0.071,0.682,0.212,1.199,0.918,1.295
				c0.329,0.047,0.847,0.094,1.059,0.094c0.141,0,0.188,0.07,0.188,0.141c0,0.117-0.118,0.188-0.377,0.188
				c-1.294,0-2.776-0.07-2.894-0.07s-1.6,0.07-2.306,0.07c-0.259,0-0.376-0.047-0.376-0.188c0-0.07,0.047-0.141,0.188-0.141
				c0.211,0,0.494-0.047,0.706-0.094c0.471-0.096,0.588-0.613,0.683-1.295c0.118-0.988,0.118-2.848,0.118-5.105v-9.953l-3.482,0.047
				c-1.459,0.023-2.023,0.188-2.4,0.754c-0.259,0.398-0.33,0.564-0.4,0.729c-0.071,0.188-0.142,0.234-0.235,0.234
				c-0.071,0-0.118-0.07-0.118-0.211c0-0.234,0.47-2.258,0.518-2.447c0.047-0.141,0.141-0.447,0.235-0.447
				c0.165,0,0.4,0.236,1.035,0.283c0.682,0.07,1.577,0.117,1.859,0.117h8.823c0.753,0,1.294-0.047,1.67-0.117
				c0.353-0.047,0.565-0.117,0.659-0.117c0.118,0,0.118,0.141,0.118,0.281c0,0.707-0.071,2.33-0.071,2.588
				c0,0.213-0.071,0.307-0.165,0.307c-0.118,0-0.165-0.07-0.188-0.4l-0.023-0.258c-0.071-0.707-0.635-1.248-2.894-1.295
				l-2.965-0.047V485.1z"/>
			<path fill="#151551" d="M315.52,485.1c0,2.258,0,4.117,0.118,5.105c0.071,0.682,0.212,1.199,0.917,1.295
				c0.33,0.047,0.847,0.094,1.059,0.094c0.141,0,0.188,0.07,0.188,0.141c0,0.117-0.118,0.188-0.376,0.188
				c-1.294,0-2.776-0.07-2.894-0.07s-1.6,0.07-2.306,0.07c-0.259,0-0.376-0.047-0.376-0.188c0-0.07,0.047-0.141,0.188-0.141
				c0.212,0,0.494-0.047,0.706-0.094c0.471-0.096,0.588-0.613,0.682-1.295c0.118-0.988,0.118-2.848,0.118-5.105v-4.141
				c0-3.672,0-4.33-0.047-5.084c-0.047-0.799-0.282-1.199-0.8-1.316c-0.259-0.07-0.565-0.094-0.729-0.094
				c-0.094,0-0.188-0.047-0.188-0.143c0-0.141,0.118-0.188,0.376-0.188c0.777,0,2.259,0.07,2.376,0.07s1.6-0.07,2.306-0.07
				c0.259,0,0.376,0.047,0.376,0.188c0,0.096-0.094,0.143-0.188,0.143c-0.165,0-0.306,0.023-0.588,0.07
				c-0.635,0.117-0.823,0.518-0.871,1.34c-0.047,0.754-0.047,1.412-0.047,5.084V485.1z"/>
			<path fill="#151551" d="M323.708,489.711c-2.283-2.047-2.847-4.729-2.847-6.965c0-1.576,0.541-4.33,2.635-6.424
				c1.412-1.412,3.553-2.518,7.176-2.518c0.941,0,2.259,0.07,3.412,0.283c0.894,0.164,1.647,0.305,2.4,0.354
				c0.259,0.023,0.306,0.117,0.306,0.258c0,0.188-0.071,0.471-0.118,1.318c-0.047,0.775-0.047,2.07-0.071,2.424
				c-0.023,0.352-0.07,0.494-0.211,0.494c-0.165,0-0.188-0.166-0.188-0.494c0-0.918-0.376-1.883-0.988-2.4
				c-0.823-0.707-2.635-1.342-4.706-1.342c-3.129,0-4.588,0.918-5.412,1.717c-1.718,1.648-2.118,3.742-2.118,6.143
				c0,4.494,3.458,8.611,8.494,8.611c1.765,0,3.153-0.213,4.094-1.176c0.494-0.518,0.8-1.555,0.871-1.977
				c0.047-0.26,0.094-0.354,0.235-0.354c0.118,0,0.165,0.164,0.165,0.354c0,0.164-0.282,2.211-0.518,3.012
				c-0.141,0.445-0.188,0.494-0.612,0.682c-0.941,0.377-2.729,0.541-4.235,0.541C327.943,492.252,325.567,491.381,323.708,489.711z"
				/>
			<path fill="#151551" d="M340.981,491.617c-0.329-0.166-0.353-0.26-0.353-0.895c0-1.176,0.094-2.117,0.118-2.494
				c0.023-0.258,0.07-0.377,0.188-0.377c0.141,0,0.165,0.07,0.165,0.26c0,0.211,0,0.541,0.071,0.871
				c0.353,1.74,1.906,2.398,3.482,2.398c2.259,0,3.364-1.623,3.364-3.129c0-1.623-0.682-2.564-2.706-4.234l-1.059-0.871
				c-2.494-2.047-3.059-3.506-3.059-5.105c0-2.518,1.882-4.236,4.871-4.236c0.917,0,1.6,0.094,2.188,0.236
				c0.447,0.094,0.635,0.117,0.824,0.117c0.188,0,0.235,0.047,0.235,0.164c0,0.119-0.094,0.895-0.094,2.494
				c0,0.377-0.047,0.541-0.165,0.541c-0.141,0-0.165-0.117-0.188-0.305c-0.023-0.283-0.165-0.918-0.306-1.178
				c-0.141-0.258-0.776-1.246-2.941-1.246c-1.624,0-2.894,1.012-2.894,2.729c0,1.342,0.612,2.189,2.871,3.953l0.659,0.518
				c2.777,2.189,3.436,3.648,3.436,5.529c0,0.965-0.376,2.754-2,3.906c-1.012,0.705-2.282,0.988-3.553,0.988
				C343.028,492.252,341.946,492.088,340.981,491.617z"/>
			<path fill="#151551" d="M369.688,491.617c-0.329-0.166-0.353-0.26-0.353-0.895c0-1.176,0.094-2.117,0.118-2.494
				c0.023-0.258,0.07-0.377,0.188-0.377c0.141,0,0.165,0.07,0.165,0.26c0,0.211,0,0.541,0.071,0.871
				c0.353,1.74,1.906,2.398,3.482,2.398c2.259,0,3.364-1.623,3.364-3.129c0-1.623-0.682-2.564-2.706-4.234l-1.059-0.871
				c-2.494-2.047-3.059-3.506-3.059-5.105c0-2.518,1.882-4.236,4.871-4.236c0.917,0,1.6,0.094,2.188,0.236
				c0.447,0.094,0.635,0.117,0.824,0.117c0.188,0,0.235,0.047,0.235,0.164c0,0.119-0.094,0.895-0.094,2.494
				c0,0.377-0.047,0.541-0.165,0.541c-0.141,0-0.165-0.117-0.188-0.305c-0.023-0.283-0.165-0.918-0.306-1.178
				c-0.141-0.258-0.776-1.246-2.941-1.246c-1.624,0-2.894,1.012-2.894,2.729c0,1.342,0.612,2.189,2.871,3.953l0.659,0.518
				c2.777,2.189,3.436,3.648,3.436,5.529c0,0.965-0.376,2.754-2,3.906c-1.012,0.705-2.282,0.988-3.553,0.988
				C371.735,492.252,370.653,492.088,369.688,491.617z"/>
			<path fill="#151551" d="M384.772,489.711c-2.283-2.047-2.847-4.729-2.847-6.965c0-1.576,0.541-4.33,2.635-6.424
				c1.412-1.412,3.553-2.518,7.176-2.518c0.941,0,2.259,0.07,3.412,0.283c0.894,0.164,1.647,0.305,2.4,0.354
				c0.259,0.023,0.306,0.117,0.306,0.258c0,0.188-0.071,0.471-0.118,1.318c-0.047,0.775-0.047,2.07-0.071,2.424
				c-0.023,0.352-0.07,0.494-0.211,0.494c-0.165,0-0.188-0.166-0.188-0.494c0-0.918-0.376-1.883-0.988-2.4
				c-0.823-0.707-2.635-1.342-4.706-1.342c-3.129,0-4.588,0.918-5.412,1.717c-1.718,1.648-2.118,3.742-2.118,6.143
				c0,4.494,3.458,8.611,8.494,8.611c1.765,0,3.153-0.213,4.094-1.176c0.494-0.518,0.8-1.555,0.871-1.977
				c0.047-0.26,0.094-0.354,0.235-0.354c0.118,0,0.165,0.164,0.165,0.354c0,0.164-0.282,2.211-0.518,3.012
				c-0.141,0.445-0.188,0.494-0.612,0.682c-0.941,0.377-2.729,0.541-4.235,0.541C389.007,492.252,386.631,491.381,384.772,489.711z"
				/>
			<path fill="#151551" d="M405.526,485.1c0,2.258,0,4.117,0.118,5.105c0.071,0.682,0.212,1.199,0.917,1.295
				c0.33,0.047,0.847,0.094,1.059,0.094c0.141,0,0.188,0.07,0.188,0.141c0,0.117-0.118,0.188-0.376,0.188
				c-1.294,0-2.776-0.07-2.894-0.07s-1.6,0.07-2.306,0.07c-0.259,0-0.376-0.047-0.376-0.188c0-0.07,0.047-0.141,0.188-0.141
				c0.212,0,0.494-0.047,0.706-0.094c0.471-0.096,0.588-0.613,0.682-1.295c0.118-0.988,0.118-2.848,0.118-5.105v-4.141
				c0-3.672,0-4.33-0.047-5.084c-0.047-0.799-0.282-1.199-0.8-1.316c-0.259-0.07-0.565-0.094-0.729-0.094
				c-0.094,0-0.188-0.047-0.188-0.143c0-0.141,0.118-0.188,0.376-0.188c0.776,0,2.259,0.07,2.376,0.07s1.6-0.07,2.306-0.07
				c0.259,0,0.376,0.047,0.376,0.188c0,0.096-0.094,0.143-0.188,0.143c-0.165,0-0.306,0.023-0.588,0.07
				c-0.635,0.117-0.823,0.518-0.87,1.34c-0.047,0.754-0.047,1.412-0.047,5.084V485.1z"/>
			<path fill="#151551" d="M413.903,480.959c0-3.672,0-4.33-0.047-5.084c-0.047-0.799-0.235-1.176-1.012-1.34
				c-0.188-0.047-0.588-0.07-0.8-0.07c-0.094,0-0.188-0.047-0.188-0.143c0-0.141,0.118-0.188,0.376-0.188
				c0.541,0,1.176,0,1.694,0.023l0.964,0.047c0.165,0,4.847,0,5.388-0.023c0.447-0.023,0.824-0.07,1.012-0.117
				c0.118-0.023,0.212-0.117,0.33-0.117c0.07,0,0.094,0.094,0.094,0.211c0,0.164-0.118,0.447-0.188,1.105
				c-0.023,0.236-0.07,1.271-0.118,1.553c-0.023,0.119-0.07,0.26-0.165,0.26c-0.141,0-0.188-0.117-0.188-0.307
				c0-0.164-0.023-0.564-0.141-0.846c-0.165-0.377-0.4-0.66-1.67-0.801c-0.4-0.047-2.965-0.07-3.224-0.07
				c-0.094,0-0.141,0.07-0.141,0.234v6.494c0,0.166,0.023,0.236,0.141,0.236c0.306,0,3.2,0,3.741-0.047
				c0.565-0.049,0.894-0.096,1.106-0.33c0.165-0.188,0.259-0.307,0.353-0.307c0.07,0,0.118,0.047,0.118,0.189
				c0,0.141-0.118,0.541-0.188,1.316c-0.047,0.471-0.094,1.342-0.094,1.506c0,0.189,0,0.447-0.165,0.447
				c-0.118,0-0.165-0.094-0.165-0.211c0-0.236,0-0.471-0.094-0.777c-0.094-0.328-0.306-0.729-1.224-0.822
				c-0.635-0.072-2.964-0.119-3.365-0.119c-0.117,0-0.165,0.07-0.165,0.166v2.07c0,0.799-0.023,3.529,0,4.023
				c0.071,1.623,0.423,1.93,2.729,1.93c0.612,0,1.647,0,2.259-0.26c0.612-0.258,0.894-0.729,1.059-1.693
				c0.047-0.26,0.094-0.354,0.212-0.354c0.141,0,0.141,0.188,0.141,0.354c0,0.188-0.188,1.787-0.306,2.281
				c-0.165,0.613-0.353,0.613-1.271,0.613c-1.765,0-3.059-0.049-3.977-0.072c-0.917-0.047-1.482-0.07-1.835-0.07
				c-0.047,0-0.447,0-0.941,0.023c-0.471,0-1.012,0.047-1.365,0.047c-0.259,0-0.376-0.047-0.376-0.188
				c0-0.07,0.047-0.141,0.188-0.141c0.212,0,0.494-0.047,0.706-0.094c0.471-0.096,0.588-0.613,0.682-1.295
				c0.118-0.988,0.118-2.848,0.118-5.105V480.959z"/>
			<path fill="#151551" d="M428.893,488.723c0.047,1.93,0.283,2.541,0.918,2.729c0.447,0.119,0.964,0.143,1.176,0.143
				c0.118,0,0.188,0.047,0.188,0.141c0,0.141-0.141,0.188-0.424,0.188c-1.341,0-2.282-0.07-2.494-0.07c-0.211,0-1.2,0.07-2.259,0.07
				c-0.235,0-0.376-0.023-0.376-0.188c0-0.094,0.071-0.141,0.188-0.141c0.188,0,0.612-0.023,0.965-0.143
				c0.588-0.164,0.706-0.846,0.706-2.988l0.023-13.48c0-0.918,0.071-1.178,0.259-1.178c0.188,0,0.588,0.518,0.824,0.754
				c0.353,0.4,3.859,4.188,7.482,8.07c2.329,2.494,4.894,5.365,5.647,6.141l-0.259-11.953c-0.024-1.529-0.188-2.047-0.918-2.234
				c-0.423-0.094-0.964-0.117-1.153-0.117c-0.165,0-0.188-0.072-0.188-0.166c0-0.141,0.188-0.164,0.47-0.164
				c1.059,0,2.188,0.07,2.447,0.07s1.035-0.07,2-0.07c0.259,0,0.423,0.023,0.423,0.164c0,0.094-0.094,0.166-0.259,0.166
				c-0.118,0-0.282,0-0.564,0.07c-0.777,0.164-0.871,0.682-0.871,2.094l-0.047,13.787c0,1.553-0.047,1.672-0.211,1.672
				c-0.188,0-0.471-0.26-1.718-1.506c-0.259-0.236-3.647-3.695-6.141-6.377c-2.729-2.941-5.388-5.906-6.141-6.752L428.893,488.723z"
				/>
			<path fill="#151551" d="M450.354,489.711c-2.282-2.047-2.847-4.729-2.847-6.965c0-1.576,0.541-4.33,2.635-6.424
				c1.412-1.412,3.553-2.518,7.176-2.518c0.941,0,2.259,0.07,3.412,0.283c0.895,0.164,1.647,0.305,2.4,0.354
				c0.259,0.023,0.306,0.117,0.306,0.258c0,0.188-0.071,0.471-0.118,1.318c-0.047,0.775-0.047,2.07-0.071,2.424
				c-0.023,0.352-0.07,0.494-0.211,0.494c-0.165,0-0.188-0.166-0.188-0.494c0-0.918-0.376-1.883-0.988-2.4
				c-0.823-0.707-2.635-1.342-4.706-1.342c-3.129,0-4.588,0.918-5.412,1.717c-1.718,1.648-2.118,3.742-2.118,6.143
				c0,4.494,3.458,8.611,8.494,8.611c1.765,0,3.153-0.213,4.094-1.176c0.494-0.518,0.8-1.555,0.871-1.977
				c0.047-0.26,0.094-0.354,0.235-0.354c0.118,0,0.165,0.164,0.165,0.354c0,0.164-0.282,2.211-0.518,3.012
				c-0.141,0.445-0.188,0.494-0.612,0.682c-0.941,0.377-2.729,0.541-4.235,0.541C454.588,492.252,452.212,491.381,450.354,489.711z"
				/>
			<path fill="#151551" d="M469.131,480.959c0-3.672,0-4.33-0.047-5.084c-0.047-0.799-0.235-1.176-1.012-1.34
				c-0.188-0.047-0.588-0.07-0.8-0.07c-0.094,0-0.188-0.047-0.188-0.143c0-0.141,0.118-0.188,0.376-0.188
				c0.541,0,1.176,0,1.694,0.023l0.964,0.047c0.165,0,4.847,0,5.388-0.023c0.447-0.023,0.824-0.07,1.012-0.117
				c0.118-0.023,0.212-0.117,0.33-0.117c0.07,0,0.094,0.094,0.094,0.211c0,0.164-0.118,0.447-0.188,1.105
				c-0.023,0.236-0.07,1.271-0.118,1.553c-0.023,0.119-0.07,0.26-0.165,0.26c-0.141,0-0.188-0.117-0.188-0.307
				c0-0.164-0.023-0.564-0.141-0.846c-0.165-0.377-0.4-0.66-1.67-0.801c-0.4-0.047-2.965-0.07-3.224-0.07
				c-0.094,0-0.141,0.07-0.141,0.234v6.494c0,0.166,0.023,0.236,0.141,0.236c0.306,0,3.2,0,3.741-0.047
				c0.565-0.049,0.894-0.096,1.106-0.33c0.165-0.188,0.259-0.307,0.353-0.307c0.07,0,0.118,0.047,0.118,0.189
				c0,0.141-0.118,0.541-0.188,1.316c-0.047,0.471-0.094,1.342-0.094,1.506c0,0.189,0,0.447-0.165,0.447
				c-0.118,0-0.165-0.094-0.165-0.211c0-0.236,0-0.471-0.094-0.777c-0.094-0.328-0.306-0.729-1.224-0.822
				c-0.635-0.072-2.964-0.119-3.365-0.119c-0.117,0-0.165,0.07-0.165,0.166v2.07c0,0.799-0.023,3.529,0,4.023
				c0.071,1.623,0.423,1.93,2.729,1.93c0.612,0,1.647,0,2.259-0.26c0.612-0.258,0.894-0.729,1.059-1.693
				c0.047-0.26,0.094-0.354,0.212-0.354c0.141,0,0.141,0.188,0.141,0.354c0,0.188-0.188,1.787-0.306,2.281
				c-0.165,0.613-0.353,0.613-1.271,0.613c-1.765,0-3.059-0.049-3.977-0.072c-0.917-0.047-1.482-0.07-1.835-0.07
				c-0.047,0-0.447,0-0.941,0.023c-0.471,0-1.012,0.047-1.365,0.047c-0.259,0-0.376-0.047-0.376-0.188
				c0-0.07,0.047-0.141,0.188-0.141c0.212,0,0.494-0.047,0.706-0.094c0.471-0.096,0.588-0.613,0.682-1.295
				c0.118-0.988,0.118-2.848,0.118-5.105V480.959z"/>
			<path fill="#151551" d="M498.78,480.959c0-3.672,0-4.33-0.047-5.084c-0.047-0.799-0.235-1.176-1.011-1.34
				c-0.188-0.047-0.588-0.07-0.8-0.07c-0.094,0-0.188-0.047-0.188-0.143c0-0.141,0.118-0.188,0.376-0.188
				c0.541,0,1.176,0,1.694,0.023l0.964,0.047c0.166,0,4.848,0,5.389-0.023c0.447-0.023,0.824-0.07,1.012-0.117
				c0.117-0.023,0.211-0.117,0.33-0.117c0.07,0,0.094,0.094,0.094,0.211c0,0.164-0.117,0.447-0.188,1.105
				c-0.025,0.236-0.072,1.271-0.119,1.553c-0.023,0.119-0.07,0.26-0.164,0.26c-0.141,0-0.188-0.117-0.188-0.307
				c0-0.164-0.023-0.564-0.143-0.846c-0.164-0.377-0.398-0.66-1.67-0.801c-0.4-0.047-2.965-0.07-3.224-0.07
				c-0.095,0-0.142,0.07-0.142,0.234v6.494c0,0.166,0.023,0.236,0.142,0.236c0.306,0,3.2,0,3.741-0.047
				c0.564-0.049,0.895-0.096,1.105-0.33c0.166-0.188,0.26-0.307,0.354-0.307c0.07,0,0.117,0.047,0.117,0.189
				c0,0.141-0.117,0.541-0.188,1.316c-0.047,0.471-0.094,1.342-0.094,1.506c0,0.189,0,0.447-0.166,0.447
				c-0.117,0-0.164-0.094-0.164-0.211c0-0.236,0-0.471-0.094-0.777c-0.094-0.328-0.307-0.729-1.225-0.822
				c-0.635-0.072-2.964-0.119-3.364-0.119c-0.118,0-0.165,0.07-0.165,0.166v2.07c0,0.799-0.023,3.529,0,4.023
				c0.071,1.623,0.424,1.93,2.73,1.93c0.611,0,1.646,0,2.258-0.26c0.611-0.258,0.895-0.729,1.059-1.693
				c0.047-0.26,0.096-0.354,0.213-0.354c0.141,0,0.141,0.188,0.141,0.354c0,0.188-0.188,1.787-0.307,2.281
				c-0.164,0.613-0.352,0.613-1.27,0.613c-1.766,0-3.059-0.049-3.977-0.072c-0.918-0.047-1.482-0.07-1.836-0.07
				c-0.047,0-0.446,0-0.94,0.023c-0.471,0-1.012,0.047-1.365,0.047c-0.259,0-0.376-0.047-0.376-0.188
				c0-0.07,0.047-0.141,0.188-0.141c0.212,0,0.494-0.047,0.706-0.094c0.471-0.096,0.588-0.613,0.682-1.295
				c0.117-0.988,0.117-2.848,0.117-5.105V480.959z"/>
			<path fill="#151551" d="M513.768,488.723c0.047,1.93,0.283,2.541,0.918,2.729c0.447,0.119,0.965,0.143,1.178,0.143
				c0.117,0,0.188,0.047,0.188,0.141c0,0.141-0.141,0.188-0.424,0.188c-1.342,0-2.281-0.07-2.494-0.07
				c-0.211,0-1.199,0.07-2.258,0.07c-0.236,0-0.377-0.023-0.377-0.188c0-0.094,0.07-0.141,0.188-0.141
				c0.189,0,0.611-0.023,0.965-0.143c0.588-0.164,0.707-0.846,0.707-2.988l0.023-13.48c0-0.918,0.07-1.178,0.258-1.178
				s0.588,0.518,0.824,0.754c0.352,0.4,3.857,4.188,7.482,8.07c2.328,2.494,4.893,5.365,5.646,6.141l-0.26-11.953
				c-0.023-1.529-0.188-2.047-0.916-2.234c-0.424-0.094-0.965-0.117-1.154-0.117c-0.164,0-0.188-0.072-0.188-0.166
				c0-0.141,0.188-0.164,0.471-0.164c1.059,0,2.188,0.07,2.447,0.07c0.258,0,1.035-0.07,2-0.07c0.258,0,0.424,0.023,0.424,0.164
				c0,0.094-0.096,0.166-0.26,0.166c-0.117,0-0.283,0-0.564,0.07c-0.777,0.164-0.871,0.682-0.871,2.094l-0.047,13.787
				c0,1.553-0.047,1.672-0.211,1.672c-0.189,0-0.471-0.26-1.719-1.506c-0.258-0.236-3.646-3.695-6.141-6.377
				c-2.729-2.941-5.389-5.906-6.141-6.752L513.768,488.723z"/>
			<path fill="#151551" d="M546.241,485.922c0-1.904-0.117-2.164-1.059-2.422c-0.188-0.047-0.588-0.072-0.799-0.072
				c-0.096,0-0.189-0.047-0.189-0.141c0-0.141,0.119-0.188,0.377-0.188c1.059,0,2.541,0.07,2.658,0.07
				c0.119,0,1.602-0.07,2.307-0.07c0.258,0,0.377,0.047,0.377,0.188c0,0.094-0.096,0.141-0.189,0.141
				c-0.164,0-0.305,0.025-0.588,0.072c-0.635,0.117-0.824,0.518-0.871,1.34c-0.047,0.754-0.047,1.459-0.047,2.447v2.635
				c0,1.061-0.023,1.107-0.305,1.271c-1.506,0.801-3.625,1.059-4.988,1.059c-1.789,0-5.129-0.234-7.742-2.518
				c-1.436-1.246-2.799-3.764-2.799-6.705c0-3.766,1.834-6.424,3.93-7.742c2.117-1.316,4.445-1.482,6.258-1.482
				c1.482,0,3.152,0.307,3.6,0.4c0.494,0.117,1.318,0.213,1.906,0.236c0.234,0.023,0.283,0.117,0.283,0.211
				c0,0.33-0.166,0.988-0.166,3.342c0,0.375-0.047,0.494-0.211,0.494c-0.117,0-0.141-0.143-0.164-0.354
				c-0.025-0.33-0.143-0.988-0.494-1.553c-0.59-0.895-2.494-1.906-5.529-1.906c-1.482,0-3.248,0.141-5.037,1.553
				c-1.363,1.082-2.328,3.225-2.328,5.977c0,3.318,1.67,5.717,2.494,6.518c1.859,1.813,4,2.518,6.164,2.518
				c0.848,0,2.07-0.141,2.682-0.494c0.307-0.164,0.471-0.424,0.471-0.824V485.922z"/>
			<path fill="#151551" d="M557.327,485.1c0,2.258,0,4.117,0.117,5.105c0.07,0.682,0.211,1.199,0.918,1.295
				c0.328,0.047,0.846,0.094,1.059,0.094c0.141,0,0.188,0.07,0.188,0.141c0,0.117-0.117,0.188-0.377,0.188
				c-1.293,0-2.775-0.07-2.893-0.07c-0.119,0-1.602,0.07-2.307,0.07c-0.26,0-0.377-0.047-0.377-0.188
				c0-0.07,0.047-0.141,0.189-0.141c0.211,0,0.494-0.047,0.705-0.094c0.471-0.096,0.588-0.613,0.682-1.295
				c0.119-0.988,0.119-2.848,0.119-5.105v-4.141c0-3.672,0-4.33-0.047-5.084c-0.049-0.799-0.283-1.199-0.801-1.316
				c-0.26-0.07-0.564-0.094-0.73-0.094c-0.094,0-0.188-0.047-0.188-0.143c0-0.141,0.117-0.188,0.377-0.188
				c0.775,0,2.258,0.07,2.377,0.07c0.117,0,1.6-0.07,2.305-0.07c0.26,0,0.377,0.047,0.377,0.188c0,0.096-0.094,0.143-0.188,0.143
				c-0.166,0-0.307,0.023-0.59,0.07c-0.635,0.117-0.822,0.518-0.869,1.34c-0.047,0.754-0.047,1.412-0.047,5.084V485.1z"/>
			<path fill="#151551" d="M566.338,488.723c0.047,1.93,0.281,2.541,0.918,2.729c0.447,0.119,0.965,0.143,1.176,0.143
				c0.117,0,0.188,0.047,0.188,0.141c0,0.141-0.141,0.188-0.422,0.188c-1.342,0-2.283-0.07-2.494-0.07
				c-0.213,0-1.201,0.07-2.26,0.07c-0.234,0-0.377-0.023-0.377-0.188c0-0.094,0.07-0.141,0.189-0.141
				c0.188,0,0.611-0.023,0.965-0.143c0.588-0.164,0.705-0.846,0.705-2.988l0.023-13.48c0-0.918,0.07-1.178,0.26-1.178
				c0.188,0,0.588,0.518,0.822,0.754c0.354,0.4,3.859,4.188,7.482,8.07c2.33,2.494,4.895,5.365,5.646,6.141l-0.258-11.953
				c-0.023-1.529-0.188-2.047-0.918-2.234c-0.424-0.094-0.965-0.117-1.152-0.117c-0.166,0-0.189-0.072-0.189-0.166
				c0-0.141,0.189-0.164,0.471-0.164c1.059,0,2.189,0.07,2.447,0.07c0.26,0,1.035-0.07,2-0.07c0.26,0,0.424,0.023,0.424,0.164
				c0,0.094-0.094,0.166-0.258,0.166c-0.119,0-0.283,0-0.566,0.07c-0.775,0.164-0.869,0.682-0.869,2.094l-0.047,13.787
				c0,1.553-0.049,1.672-0.213,1.672c-0.188,0-0.471-0.26-1.717-1.506c-0.26-0.236-3.648-3.695-6.143-6.377
				c-2.729-2.941-5.387-5.906-6.141-6.752L566.338,488.723z"/>
			<path fill="#151551" d="M587.987,480.959c0-3.672,0-4.33-0.047-5.084c-0.047-0.799-0.234-1.176-1.012-1.34
				c-0.188-0.047-0.588-0.07-0.801-0.07c-0.094,0-0.188-0.047-0.188-0.143c0-0.141,0.117-0.188,0.377-0.188
				c0.541,0,1.176,0,1.693,0.023l0.965,0.047c0.164,0,4.848,0,5.389-0.023c0.447-0.023,0.822-0.07,1.012-0.117
				c0.117-0.023,0.211-0.117,0.328-0.117c0.072,0,0.096,0.094,0.096,0.211c0,0.164-0.119,0.447-0.189,1.105
				c-0.023,0.236-0.07,1.271-0.117,1.553c-0.023,0.119-0.07,0.26-0.164,0.26c-0.143,0-0.189-0.117-0.189-0.307
				c0-0.164-0.023-0.564-0.141-0.846c-0.164-0.377-0.4-0.66-1.67-0.801c-0.4-0.047-2.965-0.07-3.225-0.07
				c-0.094,0-0.141,0.07-0.141,0.234v6.494c0,0.166,0.023,0.236,0.141,0.236c0.307,0,3.201,0,3.742-0.047
				c0.564-0.049,0.895-0.096,1.105-0.33c0.164-0.188,0.258-0.307,0.354-0.307c0.07,0,0.117,0.047,0.117,0.189
				c0,0.141-0.117,0.541-0.188,1.316c-0.049,0.471-0.096,1.342-0.096,1.506c0,0.189,0,0.447-0.164,0.447
				c-0.117,0-0.164-0.094-0.164-0.211c0-0.236,0-0.471-0.094-0.777c-0.096-0.328-0.307-0.729-1.225-0.822
				c-0.635-0.072-2.965-0.119-3.365-0.119c-0.117,0-0.164,0.07-0.164,0.166v2.07c0,0.799-0.023,3.529,0,4.023
				c0.07,1.623,0.424,1.93,2.729,1.93c0.613,0,1.648,0,2.26-0.26c0.611-0.258,0.895-0.729,1.059-1.693
				c0.047-0.26,0.094-0.354,0.213-0.354c0.141,0,0.141,0.188,0.141,0.354c0,0.188-0.189,1.787-0.307,2.281
				c-0.164,0.613-0.354,0.613-1.27,0.613c-1.766,0-3.059-0.049-3.977-0.072c-0.918-0.047-1.482-0.07-1.836-0.07
				c-0.047,0-0.447,0-0.941,0.023c-0.471,0-1.012,0.047-1.365,0.047c-0.258,0-0.375-0.047-0.375-0.188
				c0-0.07,0.047-0.141,0.188-0.141c0.213,0,0.494-0.047,0.707-0.094c0.469-0.096,0.588-0.613,0.682-1.295
				c0.117-0.988,0.117-2.848,0.117-5.105V480.959z"/>
			<path fill="#151551" d="M602.34,480.959c0-3.672,0-4.33-0.047-5.084c-0.047-0.799-0.234-1.176-1.012-1.34
				c-0.188-0.047-0.588-0.07-0.801-0.07c-0.094,0-0.188-0.047-0.188-0.143c0-0.141,0.117-0.188,0.377-0.188
				c0.541,0,1.176,0,1.693,0.023l0.965,0.047c0.164,0,4.848,0,5.389-0.023c0.447-0.023,0.822-0.07,1.012-0.117
				c0.117-0.023,0.211-0.117,0.328-0.117c0.072,0,0.096,0.094,0.096,0.211c0,0.164-0.119,0.447-0.189,1.105
				c-0.023,0.236-0.07,1.271-0.117,1.553c-0.023,0.119-0.07,0.26-0.164,0.26c-0.143,0-0.189-0.117-0.189-0.307
				c0-0.164-0.023-0.564-0.141-0.846c-0.164-0.377-0.4-0.66-1.67-0.801c-0.4-0.047-2.965-0.07-3.225-0.07
				c-0.094,0-0.141,0.07-0.141,0.234v6.494c0,0.166,0.023,0.236,0.141,0.236c0.307,0,3.201,0,3.742-0.047
				c0.564-0.049,0.895-0.096,1.105-0.33c0.164-0.188,0.258-0.307,0.354-0.307c0.07,0,0.117,0.047,0.117,0.189
				c0,0.141-0.117,0.541-0.188,1.316c-0.049,0.471-0.096,1.342-0.096,1.506c0,0.189,0,0.447-0.164,0.447
				c-0.117,0-0.164-0.094-0.164-0.211c0-0.236,0-0.471-0.094-0.777c-0.096-0.328-0.307-0.729-1.225-0.822
				c-0.635-0.072-2.965-0.119-3.365-0.119c-0.117,0-0.164,0.07-0.164,0.166v2.07c0,0.799-0.023,3.529,0,4.023
				c0.07,1.623,0.424,1.93,2.729,1.93c0.613,0,1.648,0,2.26-0.26c0.611-0.258,0.895-0.729,1.059-1.693
				c0.047-0.26,0.094-0.354,0.213-0.354c0.141,0,0.141,0.188,0.141,0.354c0,0.188-0.189,1.787-0.307,2.281
				c-0.164,0.613-0.354,0.613-1.27,0.613c-1.766,0-3.059-0.049-3.977-0.072c-0.918-0.047-1.482-0.07-1.836-0.07
				c-0.047,0-0.447,0-0.941,0.023c-0.471,0-1.012,0.047-1.365,0.047c-0.258,0-0.375-0.047-0.375-0.188
				c0-0.07,0.047-0.141,0.188-0.141c0.213,0,0.494-0.047,0.707-0.094c0.469-0.096,0.588-0.613,0.682-1.295
				c0.117-0.988,0.117-2.848,0.117-5.105V480.959z"/>
			<path fill="#151551" d="M616.694,480.959c0-3.672,0-4.33-0.047-5.084c-0.047-0.799-0.234-1.176-1.012-1.34
				c-0.188-0.047-0.588-0.07-0.801-0.07c-0.094,0-0.188-0.047-0.188-0.143c0-0.141,0.117-0.188,0.377-0.188
				c1.059,0,2.541,0.07,2.658,0.07c0.26,0,2.047-0.07,2.777-0.07c1.482,0,3.059,0.141,4.305,1.035
				c0.588,0.424,1.623,1.576,1.623,3.199c0,1.742-0.729,3.482-2.846,5.436c1.93,2.471,3.529,4.564,4.893,6.023
				c1.271,1.342,2.283,1.6,2.871,1.695c0.447,0.07,0.777,0.07,0.918,0.07c0.117,0,0.211,0.07,0.211,0.141
				c0,0.141-0.141,0.188-0.564,0.188h-1.67c-1.318,0-1.906-0.117-2.518-0.447c-1.012-0.541-1.836-1.693-3.176-3.457
				c-0.988-1.295-2.096-2.871-2.564-3.482c-0.096-0.096-0.166-0.143-0.307-0.143l-2.895-0.047c-0.117,0-0.164,0.07-0.164,0.189
				v0.564c0,2.258,0,4.117,0.117,5.105c0.07,0.682,0.213,1.199,0.918,1.295c0.33,0.047,0.848,0.094,1.059,0.094
				c0.141,0,0.188,0.07,0.188,0.141c0,0.117-0.117,0.188-0.375,0.188c-1.295,0-2.777-0.07-2.895-0.07
				c-0.023,0-1.506,0.07-2.213,0.07c-0.258,0-0.375-0.047-0.375-0.188c0-0.07,0.047-0.141,0.188-0.141
				c0.213,0,0.494-0.047,0.707-0.094c0.469-0.096,0.588-0.613,0.682-1.295c0.117-0.988,0.117-2.848,0.117-5.105V480.959z
				 M618.577,483.006c0,0.117,0.047,0.211,0.164,0.281c0.354,0.213,1.436,0.377,2.471,0.377c0.564,0,1.225-0.07,1.766-0.447
				c0.822-0.564,1.434-1.836,1.434-3.623c0-2.941-1.553-4.707-4.07-4.707c-0.705,0-1.34,0.072-1.576,0.143
				c-0.117,0.047-0.188,0.141-0.188,0.281V483.006z"/>
			<path fill="#151551" d="M636.415,485.1c0,2.258,0,4.117,0.117,5.105c0.07,0.682,0.211,1.199,0.918,1.295
				c0.328,0.047,0.846,0.094,1.059,0.094c0.141,0,0.188,0.07,0.188,0.141c0,0.117-0.117,0.188-0.377,0.188
				c-1.293,0-2.775-0.07-2.893-0.07c-0.119,0-1.602,0.07-2.307,0.07c-0.26,0-0.377-0.047-0.377-0.188
				c0-0.07,0.047-0.141,0.189-0.141c0.211,0,0.494-0.047,0.705-0.094c0.471-0.096,0.588-0.613,0.682-1.295
				c0.119-0.988,0.119-2.848,0.119-5.105v-4.141c0-3.672,0-4.33-0.047-5.084c-0.049-0.799-0.283-1.199-0.801-1.316
				c-0.26-0.07-0.564-0.094-0.73-0.094c-0.094,0-0.188-0.047-0.188-0.143c0-0.141,0.117-0.188,0.377-0.188
				c0.775,0,2.258,0.07,2.377,0.07c0.117,0,1.6-0.07,2.305-0.07c0.26,0,0.377,0.047,0.377,0.188c0,0.096-0.094,0.143-0.188,0.143
				c-0.166,0-0.307,0.023-0.59,0.07c-0.635,0.117-0.822,0.518-0.869,1.34c-0.047,0.754-0.047,1.412-0.047,5.084V485.1z"/>
			<path fill="#151551" d="M645.426,488.723c0.047,1.93,0.281,2.541,0.918,2.729c0.447,0.119,0.965,0.143,1.176,0.143
				c0.117,0,0.188,0.047,0.188,0.141c0,0.141-0.141,0.188-0.422,0.188c-1.342,0-2.283-0.07-2.494-0.07
				c-0.213,0-1.201,0.07-2.26,0.07c-0.234,0-0.377-0.023-0.377-0.188c0-0.094,0.07-0.141,0.189-0.141
				c0.188,0,0.611-0.023,0.965-0.143c0.588-0.164,0.705-0.846,0.705-2.988l0.023-13.48c0-0.918,0.07-1.178,0.26-1.178
				c0.188,0,0.588,0.518,0.822,0.754c0.354,0.4,3.859,4.188,7.482,8.07c2.33,2.494,4.895,5.365,5.646,6.141l-0.258-11.953
				c-0.023-1.529-0.188-2.047-0.918-2.234c-0.424-0.094-0.965-0.117-1.152-0.117c-0.166,0-0.189-0.072-0.189-0.166
				c0-0.141,0.189-0.164,0.471-0.164c1.059,0,2.189,0.07,2.447,0.07c0.26,0,1.035-0.07,2-0.07c0.26,0,0.424,0.023,0.424,0.164
				c0,0.094-0.094,0.166-0.258,0.166c-0.119,0-0.283,0-0.566,0.07c-0.775,0.164-0.869,0.682-0.869,2.094l-0.047,13.787
				c0,1.553-0.049,1.672-0.213,1.672c-0.188,0-0.471-0.26-1.717-1.506c-0.26-0.236-3.648-3.695-6.143-6.377
				c-2.729-2.941-5.387-5.906-6.141-6.752L645.426,488.723z"/>
			<path fill="#151551" d="M677.897,485.922c0-1.904-0.117-2.164-1.059-2.422c-0.188-0.047-0.588-0.072-0.799-0.072
				c-0.096,0-0.189-0.047-0.189-0.141c0-0.141,0.119-0.188,0.377-0.188c1.059,0,2.541,0.07,2.658,0.07
				c0.119,0,1.602-0.07,2.307-0.07c0.258,0,0.377,0.047,0.377,0.188c0,0.094-0.096,0.141-0.189,0.141
				c-0.164,0-0.305,0.025-0.588,0.072c-0.635,0.117-0.824,0.518-0.871,1.34c-0.047,0.754-0.047,1.459-0.047,2.447v2.635
				c0,1.061-0.023,1.107-0.305,1.271c-1.506,0.801-3.625,1.059-4.988,1.059c-1.789,0-5.129-0.234-7.742-2.518
				c-1.436-1.246-2.799-3.764-2.799-6.705c0-3.766,1.834-6.424,3.93-7.742c2.117-1.316,4.445-1.482,6.258-1.482
				c1.482,0,3.152,0.307,3.6,0.4c0.494,0.117,1.318,0.213,1.906,0.236c0.234,0.023,0.283,0.117,0.283,0.211
				c0,0.33-0.166,0.988-0.166,3.342c0,0.375-0.047,0.494-0.211,0.494c-0.117,0-0.141-0.143-0.164-0.354
				c-0.025-0.33-0.143-0.988-0.494-1.553c-0.59-0.895-2.494-1.906-5.529-1.906c-1.482,0-3.248,0.141-5.037,1.553
				c-1.363,1.082-2.328,3.225-2.328,5.977c0,3.318,1.67,5.717,2.494,6.518c1.859,1.813,4,2.518,6.164,2.518
				c0.848,0,2.07-0.141,2.682-0.494c0.307-0.164,0.471-0.424,0.471-0.824V485.922z"/>
			<path fill="#151551" d="M704.278,485.146c0,3.459,0.094,4.965,0.518,5.389c0.375,0.375,0.988,0.541,2.822,0.541
				c1.248,0,2.283-0.023,2.848-0.707c0.305-0.375,0.541-0.965,0.611-1.412c0.023-0.188,0.07-0.305,0.213-0.305
				c0.117,0,0.141,0.094,0.141,0.354c0,0.258-0.166,1.67-0.354,2.352c-0.164,0.541-0.234,0.637-1.482,0.637
				c-1.693,0-2.918-0.049-3.906-0.072c-0.988-0.047-1.717-0.07-2.398-0.07c-0.096,0-0.494,0.023-0.965,0.023
				c-0.471,0.023-0.988,0.047-1.342,0.047c-0.26,0-0.377-0.047-0.377-0.188c0-0.07,0.047-0.141,0.189-0.141
				c0.211,0,0.494-0.047,0.705-0.094c0.471-0.096,0.588-0.613,0.682-1.295c0.119-0.988,0.119-2.848,0.119-5.105v-4.141
				c0-3.672,0-4.33-0.047-5.084c-0.049-0.799-0.236-1.176-1.014-1.34c-0.188-0.047-0.588-0.07-0.799-0.07
				c-0.094,0-0.188-0.047-0.188-0.143c0-0.141,0.117-0.188,0.375-0.188c1.059,0,2.541,0.07,2.66,0.07c0.117,0,1.834-0.07,2.541-0.07
				c0.258,0,0.375,0.047,0.375,0.188c0,0.096-0.094,0.143-0.188,0.143c-0.164,0-0.494,0.023-0.777,0.07
				c-0.682,0.117-0.869,0.518-0.916,1.34c-0.047,0.754-0.047,1.412-0.047,5.084V485.146z"/>
			<path fill="#151551" d="M719.854,474.723c0.283-0.775,0.377-0.918,0.518-0.918c0.143,0,0.236,0.119,0.518,0.848
				c0.354,0.895,4.047,10.611,5.482,14.188c0.848,2.094,1.529,2.471,2.023,2.611c0.354,0.119,0.707,0.143,0.941,0.143
				c0.143,0,0.236,0.023,0.236,0.141c0,0.141-0.213,0.188-0.471,0.188c-0.354,0-2.07,0-3.695-0.047
				c-0.445-0.023-0.705-0.023-0.705-0.164c0-0.094,0.07-0.141,0.164-0.164c0.143-0.047,0.283-0.26,0.143-0.637l-2.189-5.787
				c-0.047-0.094-0.094-0.141-0.211-0.141h-5.059c-0.117,0-0.189,0.07-0.236,0.188l-1.412,4.164
				c-0.211,0.588-0.328,1.154-0.328,1.576c0,0.471,0.494,0.684,0.895,0.684h0.234c0.164,0,0.236,0.047,0.236,0.141
				c0,0.141-0.143,0.188-0.354,0.188c-0.564,0-1.576-0.07-1.836-0.07c-0.258,0-1.553,0.07-2.658,0.07
				c-0.307,0-0.447-0.047-0.447-0.188c0-0.094,0.094-0.141,0.211-0.141c0.166,0,0.494-0.023,0.684-0.047
				c1.082-0.143,1.553-1.035,1.977-2.213L719.854,474.723z M722.301,484.135c0.117,0,0.117-0.07,0.094-0.164l-2.234-6.354
				c-0.117-0.354-0.236-0.354-0.354,0l-2.07,6.354c-0.047,0.117,0,0.164,0.07,0.164H722.301z"/>
			<path fill="#151551" d="M733.573,488.723c0.047,1.93,0.283,2.541,0.918,2.729c0.447,0.119,0.965,0.143,1.178,0.143
				c0.117,0,0.188,0.047,0.188,0.141c0,0.141-0.141,0.188-0.424,0.188c-1.342,0-2.281-0.07-2.494-0.07
				c-0.211,0-1.199,0.07-2.258,0.07c-0.236,0-0.377-0.023-0.377-0.188c0-0.094,0.07-0.141,0.188-0.141
				c0.189,0,0.611-0.023,0.965-0.143c0.588-0.164,0.707-0.846,0.707-2.988l0.023-13.48c0-0.918,0.07-1.178,0.258-1.178
				s0.588,0.518,0.824,0.754c0.352,0.4,3.857,4.188,7.482,8.07c2.328,2.494,4.893,5.365,5.646,6.141l-0.26-11.953
				c-0.023-1.529-0.188-2.047-0.916-2.234c-0.424-0.094-0.965-0.117-1.154-0.117c-0.164,0-0.188-0.072-0.188-0.166
				c0-0.141,0.188-0.164,0.471-0.164c1.059,0,2.188,0.07,2.447,0.07c0.258,0,1.035-0.07,2-0.07c0.258,0,0.424,0.023,0.424,0.164
				c0,0.094-0.096,0.166-0.26,0.166c-0.117,0-0.283,0-0.564,0.07c-0.777,0.164-0.871,0.682-0.871,2.094l-0.047,13.787
				c0,1.553-0.047,1.672-0.211,1.672c-0.189,0-0.471-0.26-1.719-1.506c-0.258-0.236-3.646-3.695-6.141-6.377
				c-2.729-2.941-5.389-5.906-6.141-6.752L733.573,488.723z"/>
			<path fill="#151551" d="M766.045,485.922c0-1.904-0.117-2.164-1.059-2.422c-0.188-0.047-0.588-0.072-0.799-0.072
				c-0.096,0-0.189-0.047-0.189-0.141c0-0.141,0.119-0.188,0.377-0.188c1.059,0,2.541,0.07,2.658,0.07
				c0.119,0,1.602-0.07,2.307-0.07c0.258,0,0.377,0.047,0.377,0.188c0,0.094-0.096,0.141-0.189,0.141
				c-0.164,0-0.305,0.025-0.588,0.072c-0.635,0.117-0.824,0.518-0.871,1.34c-0.047,0.754-0.047,1.459-0.047,2.447v2.635
				c0,1.061-0.023,1.107-0.305,1.271c-1.506,0.801-3.625,1.059-4.988,1.059c-1.789,0-5.129-0.234-7.742-2.518
				c-1.436-1.246-2.799-3.764-2.799-6.705c0-3.766,1.834-6.424,3.93-7.742c2.117-1.316,4.445-1.482,6.258-1.482
				c1.482,0,3.152,0.307,3.6,0.4c0.494,0.117,1.318,0.213,1.906,0.236c0.234,0.023,0.283,0.117,0.283,0.211
				c0,0.33-0.166,0.988-0.166,3.342c0,0.375-0.047,0.494-0.211,0.494c-0.117,0-0.141-0.143-0.164-0.354
				c-0.025-0.33-0.143-0.988-0.494-1.553c-0.59-0.895-2.494-1.906-5.529-1.906c-1.482,0-3.248,0.141-5.037,1.553
				c-1.363,1.082-2.328,3.225-2.328,5.977c0,3.318,1.67,5.717,2.494,6.518c1.859,1.813,4,2.518,6.164,2.518
				c0.848,0,2.07-0.141,2.682-0.494c0.307-0.164,0.471-0.424,0.471-0.824V485.922z"/>
			<path fill="#151551" d="M773.79,480.959c0-3.672,0-4.33-0.047-5.084c-0.047-0.799-0.236-1.176-1.012-1.34
				c-0.189-0.047-0.588-0.07-0.801-0.07c-0.094,0-0.188-0.047-0.188-0.143c0-0.141,0.117-0.188,0.377-0.188
				c1.059,0,2.494,0.07,2.705,0.07s1.623-0.07,2.33-0.07c0.258,0,0.375,0.047,0.375,0.188c0,0.096-0.094,0.143-0.188,0.143
				c-0.164,0-0.307,0.023-0.588,0.07c-0.635,0.094-0.824,0.518-0.871,1.34c-0.047,0.754-0.047,1.412-0.047,5.084v3.293
				c0,3.389,0.752,4.848,1.764,5.813c1.154,1.082,2.213,1.293,3.555,1.293c1.434,0,2.846-0.682,3.693-1.693
				c1.082-1.342,1.365-3.342,1.365-5.766v-2.939c0-3.672,0-4.33-0.047-5.084c-0.049-0.799-0.236-1.176-1.012-1.34
				c-0.189-0.047-0.59-0.07-0.801-0.07c-0.094,0-0.188-0.047-0.188-0.143c0-0.141,0.117-0.188,0.375-0.188
				c1.059,0,2.354,0.07,2.494,0.07c0.166,0,1.271-0.07,1.977-0.07c0.26,0,0.377,0.047,0.377,0.188c0,0.096-0.094,0.143-0.188,0.143
				c-0.166,0-0.307,0.023-0.59,0.07c-0.635,0.141-0.822,0.518-0.869,1.34c-0.047,0.754-0.047,1.412-0.047,5.084v2.518
				c0,2.541-0.283,5.363-2.166,7.035c-1.693,1.506-3.459,1.74-4.846,1.74c-0.801,0-3.178-0.094-4.848-1.67
				c-1.152-1.105-2.047-2.754-2.047-6.189V480.959z"/>
			<path fill="#151551" d="M797.649,474.723c0.283-0.775,0.377-0.918,0.518-0.918c0.143,0,0.236,0.119,0.518,0.848
				c0.354,0.895,4.047,10.611,5.482,14.188c0.848,2.094,1.529,2.471,2.023,2.611c0.354,0.119,0.707,0.143,0.941,0.143
				c0.143,0,0.236,0.023,0.236,0.141c0,0.141-0.213,0.188-0.471,0.188c-0.354,0-2.07,0-3.695-0.047
				c-0.445-0.023-0.705-0.023-0.705-0.164c0-0.094,0.07-0.141,0.164-0.164c0.143-0.047,0.283-0.26,0.143-0.637l-2.189-5.787
				c-0.047-0.094-0.094-0.141-0.211-0.141h-5.059c-0.117,0-0.189,0.07-0.236,0.188l-1.412,4.164
				c-0.211,0.588-0.328,1.154-0.328,1.576c0,0.471,0.494,0.684,0.895,0.684h0.234c0.164,0,0.236,0.047,0.236,0.141
				c0,0.141-0.143,0.188-0.354,0.188c-0.564,0-1.576-0.07-1.836-0.07c-0.258,0-1.553,0.07-2.658,0.07
				c-0.307,0-0.447-0.047-0.447-0.188c0-0.094,0.094-0.141,0.211-0.141c0.166,0,0.494-0.023,0.684-0.047
				c1.082-0.143,1.553-1.035,1.977-2.213L797.649,474.723z M800.096,484.135c0.117,0,0.117-0.07,0.094-0.164l-2.234-6.354
				c-0.117-0.354-0.236-0.354-0.354,0l-2.07,6.354c-0.047,0.117,0,0.164,0.07,0.164H800.096z"/>
			<path fill="#151551" d="M821.909,485.922c0-1.904-0.117-2.164-1.059-2.422c-0.188-0.047-0.588-0.072-0.799-0.072
				c-0.096,0-0.189-0.047-0.189-0.141c0-0.141,0.119-0.188,0.377-0.188c1.059,0,2.541,0.07,2.658,0.07
				c0.119,0,1.602-0.07,2.307-0.07c0.258,0,0.377,0.047,0.377,0.188c0,0.094-0.096,0.141-0.189,0.141
				c-0.164,0-0.305,0.025-0.588,0.072c-0.635,0.117-0.824,0.518-0.871,1.34c-0.047,0.754-0.047,1.459-0.047,2.447v2.635
				c0,1.061-0.023,1.107-0.305,1.271c-1.506,0.801-3.625,1.059-4.988,1.059c-1.789,0-5.129-0.234-7.742-2.518
				c-1.436-1.246-2.799-3.764-2.799-6.705c0-3.766,1.834-6.424,3.93-7.742c2.117-1.316,4.445-1.482,6.258-1.482
				c1.482,0,3.152,0.307,3.6,0.4c0.494,0.117,1.318,0.213,1.906,0.236c0.234,0.023,0.283,0.117,0.283,0.211
				c0,0.33-0.166,0.988-0.166,3.342c0,0.375-0.047,0.494-0.211,0.494c-0.117,0-0.141-0.143-0.164-0.354
				c-0.025-0.33-0.143-0.988-0.494-1.553c-0.59-0.895-2.494-1.906-5.529-1.906c-1.482,0-3.248,0.141-5.037,1.553
				c-1.363,1.082-2.328,3.225-2.328,5.977c0,3.318,1.67,5.717,2.494,6.518c1.859,1.813,4,2.518,6.164,2.518
				c0.848,0,2.07-0.141,2.682-0.494c0.307-0.164,0.471-0.424,0.471-0.824V485.922z"/>
			<path fill="#151551" d="M831.018,480.959c0-3.672,0-4.33-0.047-5.084c-0.049-0.799-0.236-1.176-1.014-1.34
				c-0.188-0.047-0.588-0.07-0.799-0.07c-0.094,0-0.188-0.047-0.188-0.143c0-0.141,0.117-0.188,0.375-0.188
				c0.541,0,1.178,0,1.695,0.023l0.965,0.047c0.164,0,4.846,0,5.387-0.023c0.447-0.023,0.824-0.07,1.012-0.117
				c0.119-0.023,0.213-0.117,0.33-0.117c0.07,0,0.094,0.094,0.094,0.211c0,0.164-0.117,0.447-0.188,1.105
				c-0.023,0.236-0.07,1.271-0.117,1.553c-0.023,0.119-0.072,0.26-0.166,0.26c-0.141,0-0.188-0.117-0.188-0.307
				c0-0.164-0.023-0.564-0.141-0.846c-0.166-0.377-0.4-0.66-1.672-0.801c-0.4-0.047-2.965-0.07-3.223-0.07
				c-0.094,0-0.141,0.07-0.141,0.234v6.494c0,0.166,0.023,0.236,0.141,0.236c0.305,0,3.199,0,3.74-0.047
				c0.564-0.049,0.895-0.096,1.105-0.33c0.166-0.188,0.26-0.307,0.354-0.307c0.07,0,0.117,0.047,0.117,0.189
				c0,0.141-0.117,0.541-0.188,1.316c-0.047,0.471-0.094,1.342-0.094,1.506c0,0.189,0,0.447-0.164,0.447
				c-0.119,0-0.166-0.094-0.166-0.211c0-0.236,0-0.471-0.094-0.777c-0.094-0.328-0.307-0.729-1.223-0.822
				c-0.637-0.072-2.965-0.119-3.365-0.119c-0.117,0-0.164,0.07-0.164,0.166v2.07c0,0.799-0.025,3.529,0,4.023
				c0.07,1.623,0.422,1.93,2.729,1.93c0.611,0,1.646,0,2.258-0.26c0.613-0.258,0.895-0.729,1.061-1.693
				c0.047-0.26,0.094-0.354,0.211-0.354c0.141,0,0.141,0.188,0.141,0.354c0,0.188-0.188,1.787-0.305,2.281
				c-0.166,0.613-0.354,0.613-1.271,0.613c-1.764,0-3.059-0.049-3.977-0.072c-0.918-0.047-1.482-0.07-1.834-0.07
				c-0.049,0-0.447,0-0.941,0.023c-0.471,0-1.012,0.047-1.365,0.047c-0.26,0-0.377-0.047-0.377-0.188
				c0-0.07,0.047-0.141,0.189-0.141c0.211,0,0.494-0.047,0.705-0.094c0.471-0.096,0.588-0.613,0.682-1.295
				c0.119-0.988,0.119-2.848,0.119-5.105V480.959z"/>
		</g>
		<circle fill="#151551" cx="361.539" cy="483.652" r="2.445"/>
		<path fill="#151551" d="M488.789,483.652c0,1.35-1.1,2.443-2.445,2.443c-1.352,0-2.446-1.094-2.446-2.443s1.095-2.443,2.446-2.443
			C487.689,481.209,488.789,482.303,488.789,483.652z"/>
		<circle fill="#151551" cx="690.964" cy="483.652" r="2.444"/>
	</g>
</g>
</svg>
