<?xml version="1.0" encoding="utf-8"?>
<!-- Generator: Adobe Illustrator 16.0.0, SVG Export Plug-In . SVG Version: 6.00 Build 0)  -->
<!DOCTYPE svg PUBLIC "-//W3C//DTD SVG 1.1//EN" "http://www.w3.org/Graphics/SVG/1.1/DTD/svg11.dtd">
<svg version="1.1" id="Layer_1" xmlns="http://www.w3.org/2000/svg" xmlns:xlink="http://www.w3.org/1999/xlink" x="0px" y="0px"
	 width="992.129px" height="793.7px" viewBox="0 0 992.129 793.7" enable-background="new 0 0 992.129 793.7" xml:space="preserve">
<g>
	<g>
		<g>
			<path fill="#151551" d="M191.463,308.57c0.489-2.771,1.468-4.238,2.771-4.238c1.305,0,2.283,0.814,4.403,5.055l44.514,90.658
				l44.352-91.801c1.304-2.607,2.119-3.912,3.587-3.912s2.445,1.631,2.935,5.055l14.838,99.789
				c1.468,10.273,3.099,15.002,7.99,16.469c4.729,1.467,7.989,1.631,10.109,1.631c1.468,0,2.608,0.162,2.608,1.141
				c0,1.305-1.956,1.795-4.239,1.795c-4.076,0-26.578-0.326-33.1-0.816c-3.751-0.326-4.729-0.814-4.729-1.793
				c0-0.816,0.651-1.305,1.793-1.793c0.979-0.326,1.468-2.447,0.815-7.012l-9.783-70.93h-0.652L244.13,420.59
				c-3.75,7.664-4.565,9.131-6.033,9.131s-3.098-3.26-5.707-8.152c-3.913-7.5-16.795-32.447-18.751-37.014
				c-1.468-3.424-11.251-22.664-16.958-34.895h-0.652l-8.479,63.592c-0.326,2.936-0.489,5.055-0.489,7.664
				c0,3.098,2.119,4.566,4.892,5.219c2.935,0.65,5.218,0.814,6.849,0.814c1.304,0,2.445,0.326,2.445,1.141
				c0,1.469-1.468,1.795-3.913,1.795c-6.849,0-14.186-0.49-17.121-0.49c-3.098,0-10.925,0.49-16.143,0.49
				c-1.63,0-2.935-0.326-2.935-1.795c0-0.814,0.979-1.141,2.608-1.141c1.305,0,2.446,0,4.892-0.488
				c4.565-0.979,5.87-7.338,6.686-12.883L191.463,308.57z"/>
		</g>
		<g>
			<path fill="#151551" d="M373.65,388.305c-0.815,0-1.142,0.326-1.468,1.305l-8.805,22.338c-1.631,4.078-2.446,7.99-2.446,9.947
				c0,2.936,1.468,5.055,6.522,5.055h2.446c1.956,0,2.445,0.326,2.445,1.305c0,1.305-0.979,1.631-2.771,1.631
				c-5.218,0-12.229-0.49-17.284-0.49c-1.794,0-10.762,0.49-19.24,0.49c-2.12,0-3.099-0.326-3.099-1.631
				c0-0.979,0.652-1.305,1.957-1.305c1.468,0,3.75-0.164,5.055-0.326c7.5-0.979,10.599-6.521,13.859-14.676l40.927-101.094
				c1.957-4.729,2.936-6.521,4.566-6.521c1.467,0,2.445,1.467,4.076,5.217c3.913,8.969,30.002,74.191,40.438,98.975
				c6.196,14.676,10.925,16.959,14.349,17.773c2.446,0.488,4.892,0.652,6.849,0.652c1.305,0,2.12,0.162,2.12,1.305
				c0,1.305-1.468,1.631-7.501,1.631c-5.87,0-17.773,0-30.817-0.326c-2.936-0.164-4.892-0.164-4.892-1.305
				c0-0.979,0.652-1.305,2.282-1.469c1.142-0.324,2.283-1.793,1.468-3.75l-13.044-33.588c-0.326-0.816-0.815-1.143-1.631-1.143
				H373.65z M406.913,380.152c0.815,0,0.979-0.488,0.815-0.979l-14.675-40.111c-0.163-0.652-0.326-1.467-0.815-1.467
				s-0.814,0.814-0.979,1.467l-15.001,39.949c-0.163,0.652,0,1.141,0.652,1.141H406.913z"/>
		</g>
		<g>
			<path fill="#151551" d="M473.712,414.395c-15.979-14.023-20.219-32.285-20.219-48.102c0-11.088,3.424-30.328,19.077-44.678
				c11.74-10.762,27.23-17.283,51.526-17.283c10.109,0,16.143,0.652,23.643,1.631c6.196,0.814,11.414,2.281,16.306,2.771
				c1.794,0.162,2.446,0.979,2.446,1.957c0,1.303-0.489,3.26-0.815,8.967c-0.326,5.381-0.163,14.35-0.489,17.611
				c-0.163,2.445-0.489,3.75-1.957,3.75c-1.305,0-1.63-1.305-1.63-3.588c-0.163-5.055-2.283-10.762-6.359-15.002
				c-5.381-5.705-18.1-10.109-33.101-10.109c-14.186,0-23.48,3.588-30.654,10.109c-11.903,10.926-15.002,26.416-15.002,42.232
				c0,38.807,29.514,58.047,51.363,58.047c14.512,0,23.317-1.629,29.839-9.131c2.772-3.098,4.892-7.826,5.544-10.762
				c0.489-2.607,0.815-3.26,2.12-3.26c1.142,0,1.468,1.141,1.468,2.445c0,1.957-1.957,16.143-3.588,21.686
				c-0.815,2.773-1.467,3.588-4.239,4.729c-6.522,2.609-18.914,3.75-29.35,3.75C507.302,432.166,488.55,427.275,473.712,414.395z"/>
		</g>
		<g>
			<path fill="#151551" d="M601.709,353.9c0-24.785,0-29.35-0.326-34.568c-0.326-5.543-1.957-8.314-5.544-9.131
				c-1.794-0.488-3.913-0.652-5.87-0.652c-1.631,0-2.608-0.326-2.608-1.631c0-0.979,1.304-1.303,3.913-1.305
				c6.196,0,16.469,0.49,21.197,0.49c4.076,0,13.696-0.49,19.893-0.488c2.12,0,3.424,0.324,3.424,1.303
				c0,1.305-0.978,1.631-2.608,1.631s-2.936,0.164-4.892,0.49c-4.402,0.814-5.707,3.586-6.033,9.293
				c-0.326,5.219-0.326,9.783-0.326,34.568v28.697c0,15.816,0,28.697,0.652,35.709c0.489,4.402,1.631,7.338,6.522,7.99
				c2.282,0.326,5.869,0.652,8.315,0.652c1.794,0,2.609,0.488,2.609,1.305c0,1.141-1.305,1.631-3.099,1.631
				c-10.762,0-21.034-0.49-25.437-0.49c-3.75,0-14.022,0.49-20.545,0.49c-2.12,0-3.261-0.49-3.261-1.631
				c0-0.816,0.651-1.305,2.608-1.305c2.446,0,4.402-0.326,5.87-0.652c3.261-0.652,4.239-3.424,4.729-8.152
				c0.815-6.85,0.815-19.73,0.815-35.547V353.9z"/>
		</g>
		<g>
			<path fill="#151551" d="M695.792,382.598c0,20.871,0,32.123,3.424,35.057c2.772,2.447,7.012,3.588,19.73,3.588
				c8.642,0,15.001-0.162,19.077-4.566c1.957-2.119,3.913-6.684,4.239-9.783c0.163-1.467,0.489-2.445,1.794-2.445
				c1.141,0,1.304,0.816,1.304,2.771c0,1.795-1.141,14.023-2.445,18.752c-0.979,3.588-1.794,4.402-10.272,4.402
				c-11.74,0-20.219-0.326-27.557-0.488c-7.337-0.326-13.207-0.49-19.893-0.49c-1.794,0-5.381,0-9.294,0.164
				c-3.751,0-7.99,0.326-11.251,0.326c-2.12,0-3.261-0.49-3.261-1.631c0-0.816,0.651-1.305,2.608-1.305
				c2.446,0,4.402-0.326,5.87-0.652c3.261-0.652,4.076-4.24,4.729-8.969c0.815-6.848,0.815-19.729,0.815-34.73V353.9
				c0-24.785,0-29.35-0.326-34.568c-0.326-5.543-1.631-8.152-7.012-9.293c-1.304-0.326-3.261-0.49-5.381-0.49
				c-1.793,0-2.771-0.326-2.771-1.467c0-1.143,1.142-1.467,3.587-1.469c7.664,0,17.937,0.49,22.339,0.49
				c3.913,0,15.816-0.49,22.176-0.488c2.282,0,3.424,0.324,3.424,1.467c0,1.141-0.979,1.467-2.935,1.467
				c-1.794,0-4.403,0.164-6.359,0.49c-4.402,0.814-5.707,3.586-6.033,9.293c-0.326,5.219-0.326,9.783-0.326,34.568V382.598z"/>
		</g>
		<g>
			<path fill="#151551" d="M774.058,353.9c0-24.785,0-29.35-0.326-34.568c-0.326-5.543-1.631-8.152-7.012-9.293
				c-1.304-0.326-4.076-0.49-6.359-0.49c-1.793,0-2.771-0.326-2.771-1.467c0-1.143,1.142-1.467,3.587-1.467
				c4.403,0,9.132,0.162,13.208,0.162c4.239,0.162,7.989,0.326,10.272,0.326c5.218,0,37.666,0,40.764-0.164
				c3.098-0.324,5.707-0.65,7.012-0.977c0.815-0.164,1.793-0.652,2.608-0.652s0.979,0.652,0.979,1.467
				c0,1.141-0.815,3.098-1.305,10.598c-0.163,1.631-0.489,8.807-0.815,10.762c-0.163,0.816-0.489,1.795-1.63,1.795
				c-1.142,0-1.468-0.816-1.468-2.283c0-1.141-0.163-3.914-0.979-5.869c-1.142-2.936-2.771-4.893-10.925-5.871
				c-2.771-0.326-19.893-0.652-23.153-0.652c-0.815,0-1.142,0.49-1.142,1.631v41.254c0,1.141,0.163,1.793,1.142,1.793
				c3.587,0,22.338,0,26.089-0.326c3.913-0.326,6.359-0.814,7.826-2.445c1.142-1.305,1.794-2.121,2.609-2.121
				c0.652,0,1.141,0.326,1.141,1.305s-0.651,3.588-1.304,11.904c-0.163,3.26-0.652,9.783-0.652,10.924c0,1.305,0,3.098-1.468,3.098
				c-1.142,0-1.468-0.652-1.468-1.467c-0.163-1.631-0.163-3.75-0.651-5.871c-0.815-3.26-3.099-5.705-9.132-6.357
				c-3.098-0.326-19.24-0.49-23.153-0.49c-0.815,0-0.979,0.652-0.979,1.631v12.881c0,5.545-0.163,20.545,0,25.273
				c0.326,11.252,2.935,13.697,19.566,13.697c4.239,0,11.088,0,15.327-1.957s6.196-5.381,7.338-12.066
				c0.326-1.793,0.652-2.445,1.794-2.445c1.304,0,1.304,1.305,1.304,2.936c0,3.75-1.304,14.838-2.119,18.1
				c-1.142,4.238-2.609,4.238-8.806,4.238c-12.229,0-21.197-0.326-28.208-0.488c-7.012-0.326-12.066-0.49-16.958-0.49
				c-1.794,0-5.381,0-9.294,0.164c-3.751,0-7.99,0.326-11.251,0.326c-2.12,0-3.261-0.49-3.261-1.631
				c0-0.816,0.651-1.305,2.608-1.305c2.446,0,4.402-0.326,5.87-0.652c3.261-0.652,4.076-4.24,4.729-8.969
				c0.815-6.848,0.815-19.729,0.815-34.73V353.9z"/>
		</g>
	</g>
	<g>
		<path fill="#151551" d="M183.161,460.076c0.113,1.019,0.312,2.603,1.528,2.999c0.82,0.254,1.556,0.254,1.839,0.254
			c0.142,0,0.226,0.028,0.226,0.142c0,0.17-0.254,0.255-0.594,0.255c-0.623,0-3.678-0.028-4.725-0.113
			c-0.65-0.057-0.792-0.142-0.792-0.283c0-0.113,0.057-0.169,0.198-0.197c0.141-0.028,0.169-0.51,0.113-1.019l-1.358-14.683h-0.085
			l-6.931,14.711c-0.594,1.244-0.679,1.499-0.934,1.499c-0.198,0-0.339-0.283-0.877-1.302c-0.736-1.386-3.168-6.28-3.31-6.563
			c-0.254-0.51-3.423-7.299-3.734-8.063h-0.113l-1.132,13.126c-0.028,0.453-0.028,0.962-0.028,1.442
			c0,0.425,0.311,0.793,0.735,0.878c0.481,0.112,0.905,0.141,1.075,0.141c0.113,0,0.227,0.057,0.227,0.142
			c0,0.198-0.17,0.255-0.509,0.255c-1.047,0-2.405-0.085-2.631-0.085c-0.255,0-1.613,0.085-2.376,0.085
			c-0.283,0-0.481-0.057-0.481-0.255c0-0.085,0.142-0.142,0.283-0.142c0.227,0,0.424,0,0.849-0.085
			c0.934-0.169,1.019-1.272,1.132-2.348l2.037-18.445c0.028-0.311,0.142-0.509,0.312-0.509c0.169,0,0.283,0.113,0.424,0.424
			l8.657,17.795l8.317-17.767c0.113-0.254,0.227-0.452,0.424-0.452c0.198,0,0.283,0.227,0.34,0.764L183.161,460.076z"/>
		<path fill="#151551" d="M195.578,445.987c0.311-0.792,0.424-0.933,0.594-0.933c0.254,0,0.339,0.339,0.594,0.877
			c0.453,1.018,4.441,10.947,5.969,14.597c0.905,2.15,1.584,2.462,2.122,2.632c0.368,0.112,0.736,0.141,0.99,0.141
			c0.142,0,0.312,0.057,0.312,0.198s-0.283,0.198-0.566,0.198c-0.368,0-2.207,0-3.932-0.057c-0.481-0.028-0.877-0.028-0.877-0.17
			c0-0.113,0.057-0.113,0.17-0.17c0.142-0.057,0.396-0.254,0.227-0.65l-2.235-5.517c-0.057-0.113-0.085-0.142-0.227-0.142h-5.743
			c-0.113,0-0.198,0.057-0.255,0.198l-1.415,3.848c-0.226,0.594-0.368,1.188-0.368,1.612c0,0.481,0.424,0.65,0.849,0.65h0.227
			c0.198,0,0.254,0.085,0.254,0.198c0,0.142-0.141,0.198-0.368,0.198c-0.594,0-1.952-0.085-2.235-0.085
			c-0.254,0-1.5,0.085-2.518,0.085c-0.312,0-0.481-0.057-0.481-0.198c0-0.113,0.113-0.198,0.226-0.198
			c0.17,0,0.538-0.028,0.735-0.057c1.132-0.141,1.613-0.99,2.094-2.206L195.578,445.987z M198.351,456.002
			c0.113,0,0.113-0.057,0.085-0.169l-2.461-6.592c-0.142-0.368-0.283-0.368-0.424,0l-2.32,6.592c-0.028,0.112,0,0.169,0.085,0.169
			H198.351z"/>
		<path fill="#151551" d="M213.061,456.71c0,2.319,0,4.215,0.113,5.205c0.085,0.707,0.198,1.16,0.962,1.272
			c0.339,0.057,0.905,0.113,1.131,0.113c0.17,0,0.198,0.113,0.198,0.198c0,0.113-0.113,0.198-0.396,0.198
			c-1.358,0-2.942-0.085-3.083-0.085c-0.113,0-1.839,0.085-2.575,0.085c-0.283,0-0.396-0.057-0.396-0.198
			c0-0.085,0.057-0.17,0.198-0.17c0.226,0,0.509-0.057,0.735-0.113c0.509-0.112,0.651-0.594,0.736-1.301
			c0.113-0.99,0.113-2.886,0.113-5.205v-10.1l-3.593,0.057c-1.556,0.028-2.15,0.198-2.518,0.764
			c-0.283,0.424-0.312,0.594-0.396,0.764c-0.057,0.198-0.142,0.227-0.255,0.227c-0.057,0-0.169-0.057-0.169-0.198
			c0-0.255,0.481-2.404,0.537-2.603c0.028-0.142,0.17-0.453,0.255-0.453c0.17,0,0.424,0.198,1.103,0.283
			c0.708,0.085,1.669,0.113,1.952,0.113h9.392c0.821,0,1.386-0.057,1.782-0.113c0.368-0.057,0.594-0.113,0.708-0.113
			s0.113,0.142,0.113,0.283c0,0.735-0.085,2.461-0.085,2.744c0,0.198-0.113,0.312-0.227,0.312c-0.113,0-0.169-0.085-0.198-0.425
			l-0.028-0.255c-0.085-0.735-0.623-1.272-2.999-1.329l-3.112-0.057V456.71z"/>
		<path fill="#151551" d="M224.884,452.466c0-3.734,0-4.413-0.057-5.177c-0.056-0.82-0.198-1.217-1.018-1.33
			c-0.198-0.027-0.623-0.056-0.849-0.056c-0.085,0-0.198-0.113-0.198-0.198c0-0.142,0.113-0.198,0.396-0.198
			c1.132,0,2.744,0.057,2.886,0.057c0.169,0,5.375,0.028,5.941,0c0.481-0.028,0.934-0.113,1.131-0.142
			c0.113-0.028,0.227-0.113,0.339-0.113c0.085,0,0.113,0.113,0.113,0.227c0,0.17-0.142,0.452-0.198,1.132
			c-0.028,0.226-0.085,1.301-0.142,1.584c-0.028,0.113-0.113,0.255-0.227,0.255c-0.141,0-0.198-0.113-0.198-0.312
			c0-0.17-0.028-0.565-0.142-0.849c-0.169-0.396-0.424-0.565-1.782-0.735c-0.424-0.057-3.31-0.085-3.593-0.085
			c-0.113,0-0.142,0.085-0.142,0.255v6.534c0,0.17,0,0.255,0.142,0.255c0.311,0,3.593,0,4.159-0.057
			c0.594-0.057,0.962-0.085,1.216-0.339c0.17-0.17,0.283-0.312,0.368-0.312s0.142,0.057,0.142,0.198
			c0,0.141-0.142,0.537-0.198,1.329c-0.056,0.481-0.113,1.387-0.113,1.556c0,0.198-0.057,0.453-0.227,0.453
			c-0.113,0-0.169-0.085-0.169-0.227c0-0.227,0-0.48-0.113-0.792c-0.085-0.34-0.312-0.622-1.273-0.735
			c-0.679-0.085-3.338-0.113-3.763-0.113c-0.142,0-0.17,0.085-0.17,0.17v2.009c0,0.82-0.028,3.621,0,4.102
			c0.057,1.612,0.509,1.924,2.971,1.924c0.65,0,1.839,0,2.489-0.255c0.651-0.282,0.99-0.707,1.132-1.669
			c0.057-0.283,0.113-0.368,0.254-0.368s0.17,0.198,0.17,0.368s-0.198,1.811-0.339,2.32c-0.17,0.622-0.424,0.622-1.386,0.622
			c-1.867,0-3.31-0.057-4.329-0.085c-1.046-0.057-1.697-0.057-2.065-0.057c-0.057,0-0.538,0-1.075,0.028
			c-0.481,0.028-1.047,0.057-1.443,0.057c-0.254,0-0.396-0.057-0.396-0.198c0-0.085,0.057-0.198,0.198-0.198
			c0.226,0,0.538-0.085,0.764-0.113c0.481-0.084,0.538-0.565,0.651-1.272c0.141-0.99,0.141-2.886,0.141-5.205V452.466z"/>
		<path fill="#151551" d="M259.115,460.613c0.085,0.849,0.255,2.15,1.273,2.49c0.708,0.226,1.358,0.226,1.613,0.226
			c0.113,0,0.198,0.057,0.198,0.17c0,0.142-0.226,0.227-0.509,0.227c-0.565,0-3.338-0.028-4.243-0.113
			c-0.594-0.057-0.708-0.142-0.708-0.255c0-0.085,0.057-0.17,0.17-0.197c0.142-0.028,0.17-0.396,0.113-0.85l-1.188-12.221h-0.056
			l-5.998,12.277c-0.509,1.047-0.651,1.273-0.877,1.273c-0.227,0-0.368-0.227-0.849-1.104c-0.651-1.188-2.292-4.271-2.914-5.573
			c-0.735-1.527-2.744-5.573-3.168-6.563h-0.113l-0.962,10.863c-0.028,0.367-0.028,0.82-0.028,1.216c0,0.368,0.227,0.595,0.594,0.68
			c0.424,0.112,0.792,0.141,0.962,0.141c0.085,0,0.198,0.085,0.198,0.17c0,0.17-0.17,0.227-0.453,0.227
			c-0.934,0-2.122-0.085-2.32-0.085c-0.227,0-1.415,0.085-2.094,0.085c-0.254,0-0.424-0.057-0.424-0.227
			c0-0.085,0.113-0.17,0.255-0.17c0.198,0,0.368-0.028,0.735-0.085c0.82-0.141,0.849-1.018,0.962-1.923l1.811-15.701
			c0.028-0.255,0.142-0.425,0.283-0.425c0.17,0,0.368,0.085,0.509,0.368l7.525,14.937l7.242-14.908
			c0.113-0.227,0.226-0.396,0.396-0.396c0.169,0,0.311,0.198,0.368,0.651L259.115,460.613z"/>
		<path fill="#151551" d="M270.91,445.987c0.311-0.792,0.424-0.933,0.594-0.933c0.254,0,0.339,0.339,0.594,0.877
			c0.453,1.018,4.441,10.947,5.969,14.597c0.905,2.15,1.584,2.462,2.122,2.632c0.368,0.112,0.736,0.141,0.99,0.141
			c0.142,0,0.312,0.057,0.312,0.198s-0.283,0.198-0.566,0.198c-0.368,0-2.207,0-3.932-0.057c-0.481-0.028-0.877-0.028-0.877-0.17
			c0-0.113,0.057-0.113,0.17-0.17c0.142-0.057,0.396-0.254,0.227-0.65l-2.235-5.517c-0.057-0.113-0.085-0.142-0.227-0.142h-5.743
			c-0.113,0-0.198,0.057-0.255,0.198l-1.415,3.848c-0.226,0.594-0.368,1.188-0.368,1.612c0,0.481,0.424,0.65,0.849,0.65h0.227
			c0.198,0,0.254,0.085,0.254,0.198c0,0.142-0.141,0.198-0.368,0.198c-0.594,0-1.952-0.085-2.235-0.085
			c-0.254,0-1.5,0.085-2.518,0.085c-0.312,0-0.481-0.057-0.481-0.198c0-0.113,0.113-0.198,0.226-0.198
			c0.17,0,0.538-0.028,0.735-0.057c1.132-0.141,1.613-0.99,2.094-2.206L270.91,445.987z M273.683,456.002
			c0.113,0,0.113-0.057,0.085-0.169l-2.461-6.592c-0.142-0.368-0.283-0.368-0.424,0l-2.32,6.592c-0.028,0.112,0,0.169,0.085,0.169
			H273.683z M275.889,441.716c0.142,0.255,0,0.34-0.113,0.34c-0.085,0-0.368-0.057-0.849,0c-1.386,0.142-3.366,0.792-4.3,1.188
			c-0.198,0.084-0.368,0.141-0.425,0.141c-0.056,0-0.141-0.057-0.141-0.169c0-0.085,0.057-0.142,0.198-0.227
			c1.019-0.707,3.649-2.292,3.848-2.405c0.481-0.282,0.65-0.367,0.792-0.367c0.085,0,0.142,0.057,0.283,0.255
			C275.38,440.754,275.578,441.15,275.889,441.716z"/>
		<path fill="#151551" d="M288.392,456.71c0,2.319,0,4.215,0.113,5.205c0.085,0.707,0.198,1.16,0.962,1.272
			c0.339,0.057,0.905,0.113,1.131,0.113c0.17,0,0.198,0.113,0.198,0.198c0,0.113-0.113,0.198-0.396,0.198
			c-1.358,0-2.942-0.085-3.083-0.085c-0.113,0-1.839,0.085-2.575,0.085c-0.283,0-0.396-0.057-0.396-0.198
			c0-0.085,0.057-0.17,0.198-0.17c0.226,0,0.509-0.057,0.735-0.113c0.509-0.112,0.651-0.594,0.736-1.301
			c0.113-0.99,0.113-2.886,0.113-5.205v-10.1l-3.593,0.057c-1.556,0.028-2.15,0.198-2.518,0.764
			c-0.283,0.424-0.311,0.594-0.396,0.764c-0.057,0.198-0.142,0.227-0.255,0.227c-0.057,0-0.169-0.057-0.169-0.198
			c0-0.255,0.481-2.404,0.537-2.603c0.028-0.142,0.17-0.453,0.255-0.453c0.169,0,0.424,0.198,1.103,0.283
			c0.708,0.085,1.669,0.113,1.952,0.113h9.392c0.821,0,1.386-0.057,1.782-0.113c0.368-0.057,0.594-0.113,0.708-0.113
			s0.113,0.142,0.113,0.283c0,0.735-0.085,2.461-0.085,2.744c0,0.198-0.113,0.312-0.227,0.312c-0.113,0-0.169-0.085-0.198-0.425
			l-0.028-0.255c-0.085-0.735-0.623-1.272-2.999-1.329l-3.112-0.057V456.71z"/>
		<path fill="#151551" d="M302.479,456.71c0,2.319,0,4.215,0.113,5.205c0.085,0.707,0.17,1.16,0.905,1.272
			c0.368,0.057,0.905,0.113,1.132,0.113c0.141,0,0.198,0.113,0.198,0.198c0,0.113-0.113,0.198-0.396,0.198
			c-1.386,0-2.999-0.085-3.112-0.085c-0.142,0-1.697,0.085-2.461,0.085c-0.254,0-0.396-0.057-0.396-0.198
			c0-0.085,0.057-0.198,0.198-0.198c0.226,0,0.538-0.057,0.764-0.113c0.481-0.112,0.566-0.565,0.651-1.272
			c0.113-0.99,0.141-2.886,0.141-5.205v-4.244c0-3.734,0-4.413-0.057-5.177c-0.056-0.82-0.254-1.188-0.792-1.302
			c-0.283-0.056-0.594-0.084-0.764-0.084c-0.113,0-0.198-0.113-0.198-0.198c0-0.142,0.113-0.198,0.396-0.198
			c0.821,0,2.376,0.057,2.518,0.057c0.113,0,1.726-0.057,2.489-0.057c0.283,0,0.396,0.057,0.396,0.198
			c0,0.085-0.113,0.198-0.198,0.198c-0.17,0-0.339,0-0.623,0.056c-0.679,0.142-0.82,0.481-0.877,1.33
			c-0.028,0.764-0.028,1.442-0.028,5.177V456.71z"/>
		<path fill="#151551" d="M311.023,461.434c-2.433-2.093-3.027-4.837-3.027-7.129c0-1.612,0.594-4.413,2.8-6.563
			c1.5-1.443,3.763-2.575,7.582-2.575c0.99,0,2.404,0.085,3.621,0.283c0.934,0.17,1.726,0.34,2.546,0.368
			c0.254,0,0.311,0.113,0.311,0.254c0,0.198-0.057,0.481-0.113,1.358c-0.028,0.792-0.028,2.122-0.057,2.461
			c-0.028,0.368-0.142,0.51-0.283,0.51c-0.169,0-0.198-0.17-0.198-0.51c0-0.934-0.396-1.896-1.047-2.404
			c-0.877-0.735-2.688-1.33-4.894-1.33c-3.197,0-4.725,0.849-5.602,1.669c-1.839,1.698-2.235,3.848-2.235,6.281
			c0,4.61,3.649,8.713,8.968,8.713c1.867,0,3.112-0.142,4.102-1.132c0.538-0.537,0.877-1.556,0.962-2.009
			c0.057-0.254,0.085-0.339,0.255-0.339c0.113,0,0.226,0.17,0.226,0.339c0,0.17-0.339,2.264-0.594,3.084
			c-0.141,0.452-0.198,0.537-0.622,0.707c-1.019,0.396-2.886,0.538-4.498,0.538C315.493,464.009,312.975,463.132,311.023,461.434z"
			/>
		<path fill="#151551" d="M334.644,445.987c0.311-0.792,0.424-0.933,0.594-0.933c0.254,0,0.339,0.339,0.594,0.877
			c0.453,1.018,4.442,10.947,5.969,14.597c0.905,2.15,1.584,2.462,2.122,2.632c0.368,0.112,0.736,0.141,0.99,0.141
			c0.142,0,0.312,0.057,0.312,0.198s-0.283,0.198-0.566,0.198c-0.368,0-2.207,0-3.933-0.057c-0.48-0.028-0.877-0.028-0.877-0.17
			c0-0.113,0.057-0.113,0.17-0.17c0.142-0.057,0.396-0.254,0.227-0.65l-2.235-5.517c-0.056-0.113-0.084-0.142-0.226-0.142h-5.743
			c-0.113,0-0.198,0.057-0.255,0.198l-1.415,3.848c-0.226,0.594-0.368,1.188-0.368,1.612c0,0.481,0.424,0.65,0.849,0.65h0.227
			c0.198,0,0.254,0.085,0.254,0.198c0,0.142-0.141,0.198-0.368,0.198c-0.594,0-1.952-0.085-2.235-0.085
			c-0.254,0-1.5,0.085-2.518,0.085c-0.312,0-0.481-0.057-0.481-0.198c0-0.113,0.113-0.198,0.226-0.198
			c0.17,0,0.538-0.028,0.736-0.057c1.131-0.141,1.612-0.99,2.093-2.206L334.644,445.987z M337.417,456.002
			c0.113,0,0.113-0.057,0.085-0.169l-2.461-6.592c-0.142-0.368-0.283-0.368-0.424,0l-2.32,6.592c-0.028,0.112,0,0.169,0.085,0.169
			H337.417z"/>
		<path fill="#151551" d="M346.666,463.357c-0.339-0.17-0.368-0.254-0.368-0.905c0-1.188,0.113-2.149,0.141-2.546
			c0-0.255,0.057-0.396,0.198-0.396s0.226,0.084,0.226,0.282s0,0.538,0.085,0.877c0.396,1.754,2.263,2.377,3.933,2.377
			c2.461,0,3.734-1.387,3.734-3.197c0-1.726-0.934-2.546-3.14-4.187l-1.131-0.849c-2.688-2.009-3.564-3.479-3.564-5.149
			c0-2.828,2.235-4.526,5.516-4.526c0.99,0,1.98,0.142,2.575,0.283c0.481,0.113,0.679,0.113,0.877,0.113
			c0.198,0,0.254,0.028,0.254,0.17c0,0.113-0.113,0.905-0.113,2.546c0,0.368-0.028,0.537-0.198,0.537s-0.198-0.112-0.226-0.311
			c-0.028-0.283-0.227-0.934-0.368-1.188c-0.169-0.283-0.99-1.188-3.225-1.188c-1.811,0-3.31,0.905-3.31,2.603
			c0,1.528,0.764,2.405,3.225,4.074l0.707,0.48c3.027,2.065,4.074,3.734,4.074,5.8c0,1.414-0.538,2.942-2.32,4.103
			c-1.047,0.679-2.603,0.849-3.96,0.849C349.127,464.009,347.685,463.839,346.666,463.357z"/>
		<path fill="#151551" d="M382.818,461.038c-2.744-2.461-3.423-5.687-3.423-8.374c0-1.896,0.651-5.205,3.168-7.723
			c1.697-1.697,4.272-3.027,8.628-3.027c1.131,0,2.716,0.085,4.102,0.34c1.075,0.197,1.98,0.367,2.886,0.424
			c0.311,0.028,0.368,0.142,0.368,0.312c0,0.227-0.085,0.565-0.142,1.584c-0.057,0.934-0.057,2.489-0.085,2.914
			c-0.028,0.424-0.085,0.594-0.254,0.594c-0.198,0-0.227-0.198-0.227-0.594c0-1.104-0.453-2.264-1.188-2.886
			c-0.99-0.849-3.168-1.612-5.658-1.612c-3.762,0-5.516,1.104-6.506,2.065c-2.065,1.979-2.546,4.498-2.546,7.383
			c0,5.403,4.159,10.354,10.213,10.354c2.122,0,3.791-0.255,4.922-1.415c0.594-0.622,0.962-1.866,1.047-2.376
			c0.057-0.312,0.113-0.424,0.283-0.424c0.142,0,0.198,0.197,0.198,0.424c0,0.198-0.34,2.659-0.623,3.621
			c-0.17,0.538-0.227,0.594-0.735,0.82c-1.132,0.453-3.282,0.65-5.092,0.65C387.911,464.093,385.053,463.047,382.818,461.038z"/>
		<path fill="#151551" d="M407.005,456.71c0,2.319,0,4.215,0.113,5.205c0.085,0.707,0.17,1.16,0.905,1.272
			c0.368,0.057,0.905,0.113,1.132,0.113c0.141,0,0.198,0.113,0.198,0.198c0,0.113-0.113,0.198-0.396,0.198
			c-1.386,0-2.999-0.085-3.112-0.085c-0.142,0-1.697,0.085-2.461,0.085c-0.254,0-0.396-0.057-0.396-0.198
			c0-0.085,0.057-0.198,0.198-0.198c0.226,0,0.538-0.057,0.764-0.113c0.481-0.112,0.566-0.565,0.651-1.272
			c0.113-0.99,0.141-2.886,0.141-5.205v-4.244c0-3.734,0-4.413-0.057-5.177c-0.056-0.82-0.254-1.188-0.792-1.302
			c-0.283-0.056-0.594-0.084-0.764-0.084c-0.113,0-0.198-0.113-0.198-0.198c0-0.142,0.113-0.198,0.396-0.198
			c0.821,0,2.376,0.057,2.518,0.057c0.113,0,1.726-0.057,2.489-0.057c0.283,0,0.396,0.057,0.396,0.198
			c0,0.085-0.113,0.198-0.198,0.198c-0.17,0-0.339,0-0.623,0.056c-0.679,0.142-0.82,0.481-0.877,1.33
			c-0.028,0.764-0.028,1.442-0.028,5.177V456.71z"/>
		<path fill="#151551" d="M415.18,452.466c0-3.734,0-4.413-0.057-5.177c-0.056-0.82-0.198-1.217-1.018-1.33
			c-0.198-0.027-0.623-0.056-0.849-0.056c-0.085,0-0.198-0.113-0.198-0.198c0-0.142,0.113-0.198,0.396-0.198
			c1.132,0,2.744,0.057,2.886,0.057c0.169,0,5.375,0.028,5.941,0c0.481-0.028,0.934-0.113,1.131-0.142
			c0.113-0.028,0.227-0.113,0.339-0.113c0.085,0,0.113,0.113,0.113,0.227c0,0.17-0.142,0.452-0.198,1.132
			c-0.028,0.226-0.085,1.301-0.142,1.584c-0.028,0.113-0.113,0.255-0.227,0.255c-0.141,0-0.198-0.113-0.198-0.312
			c0-0.17-0.028-0.565-0.142-0.849c-0.169-0.396-0.424-0.565-1.782-0.735c-0.424-0.057-3.31-0.085-3.593-0.085
			c-0.113,0-0.142,0.085-0.142,0.255v6.534c0,0.17,0,0.255,0.142,0.255c0.311,0,3.593,0,4.159-0.057
			c0.594-0.057,0.962-0.085,1.216-0.339c0.17-0.17,0.283-0.312,0.368-0.312s0.142,0.057,0.142,0.198
			c0,0.141-0.142,0.537-0.198,1.329c-0.056,0.481-0.113,1.387-0.113,1.556c0,0.198-0.057,0.453-0.227,0.453
			c-0.113,0-0.169-0.085-0.169-0.227c0-0.227,0-0.48-0.113-0.792c-0.085-0.34-0.312-0.622-1.273-0.735
			c-0.679-0.085-3.338-0.113-3.763-0.113c-0.142,0-0.17,0.085-0.17,0.17v2.009c0,0.82-0.028,3.621,0,4.102
			c0.057,1.612,0.509,1.924,2.971,1.924c0.65,0,1.839,0,2.489-0.255c0.651-0.282,0.99-0.707,1.132-1.669
			c0.057-0.283,0.113-0.368,0.254-0.368s0.17,0.198,0.17,0.368s-0.198,1.811-0.339,2.32c-0.17,0.622-0.424,0.622-1.386,0.622
			c-1.867,0-3.31-0.057-4.329-0.085c-1.046-0.057-1.697-0.057-2.065-0.057c-0.057,0-0.538,0-1.075,0.028
			c-0.481,0.028-1.047,0.057-1.443,0.057c-0.254,0-0.396-0.057-0.396-0.198c0-0.085,0.057-0.198,0.198-0.198
			c0.226,0,0.538-0.085,0.764-0.113c0.481-0.084,0.538-0.565,0.651-1.272c0.141-0.99,0.141-2.886,0.141-5.205V452.466z"/>
		<path fill="#151551" d="M431.814,460.416c0.057,1.979,0.283,2.574,0.962,2.744c0.453,0.112,1.019,0.141,1.245,0.141
			c0.113,0,0.198,0.085,0.198,0.198c0,0.142-0.17,0.198-0.453,0.198c-1.415,0-2.405-0.085-2.631-0.085
			c-0.226,0-1.273,0.085-2.404,0.085c-0.255,0-0.396-0.028-0.396-0.198c0-0.113,0.084-0.198,0.198-0.198
			c0.198,0,0.651-0.028,1.019-0.141c0.623-0.17,0.707-0.821,0.707-2.999v-13.777c0-0.962,0.142-1.217,0.34-1.217
			c0.283,0,0.707,0.481,0.962,0.736c0.396,0.396,4.017,4.243,7.864,8.204c2.461,2.546,5.121,5.403,5.884,6.195l-0.254-12.052
			c-0.028-1.556-0.17-2.094-0.934-2.235c-0.453-0.084-1.019-0.112-1.217-0.112c-0.169,0-0.198-0.142-0.198-0.227
			c0-0.142,0.198-0.17,0.481-0.17c1.131,0,2.32,0.057,2.603,0.057c0.283,0,1.104-0.057,2.122-0.057c0.255,0,0.453,0.028,0.453,0.17
			c0,0.085-0.113,0.227-0.283,0.227c-0.113,0-0.311,0-0.594,0.056c-0.82,0.17-0.877,0.651-0.877,2.094l-0.057,14.089
			c0,1.584-0.028,1.726-0.198,1.726c-0.255,0-0.509-0.198-1.896-1.472c-0.254-0.226-3.847-3.763-6.479-6.506
			c-2.885-3.027-5.686-5.97-6.45-6.818L431.814,460.416z"/>
		<path fill="#151551" d="M454.134,461.434c-2.433-2.093-3.027-4.837-3.027-7.129c0-1.612,0.594-4.413,2.8-6.563
			c1.5-1.443,3.763-2.575,7.582-2.575c0.99,0,2.404,0.085,3.621,0.283c0.934,0.17,1.726,0.34,2.546,0.368
			c0.254,0,0.311,0.113,0.311,0.254c0,0.198-0.057,0.481-0.113,1.358c-0.028,0.792-0.028,2.122-0.057,2.461
			c-0.028,0.368-0.142,0.51-0.283,0.51c-0.169,0-0.198-0.17-0.198-0.51c0-0.934-0.396-1.896-1.047-2.404
			c-0.877-0.735-2.688-1.33-4.894-1.33c-3.197,0-4.725,0.849-5.602,1.669c-1.839,1.698-2.235,3.848-2.235,6.281
			c0,4.61,3.649,8.713,8.968,8.713c1.867,0,3.112-0.142,4.102-1.132c0.538-0.537,0.877-1.556,0.962-2.009
			c0.057-0.254,0.085-0.339,0.255-0.339c0.113,0,0.226,0.17,0.226,0.339c0,0.17-0.339,2.264-0.594,3.084
			c-0.141,0.452-0.198,0.537-0.622,0.707c-1.019,0.396-2.886,0.538-4.498,0.538C458.604,464.009,456.086,463.132,454.134,461.434z"
			/>
		<path fill="#151551" d="M476.228,456.71c0,2.319,0,4.215,0.113,5.205c0.085,0.707,0.17,1.16,0.905,1.272
			c0.368,0.057,0.905,0.113,1.132,0.113c0.141,0,0.198,0.113,0.198,0.198c0,0.113-0.113,0.198-0.396,0.198
			c-1.386,0-2.999-0.085-3.112-0.085c-0.142,0-1.697,0.085-2.461,0.085c-0.254,0-0.396-0.057-0.396-0.198
			c0-0.085,0.057-0.198,0.198-0.198c0.226,0,0.538-0.057,0.764-0.113c0.481-0.112,0.566-0.565,0.651-1.272
			c0.113-0.99,0.141-2.886,0.141-5.205v-4.244c0-3.734,0-4.413-0.057-5.177c-0.056-0.82-0.254-1.188-0.792-1.302
			c-0.283-0.056-0.594-0.084-0.764-0.084c-0.113,0-0.198-0.113-0.198-0.198c0-0.142,0.113-0.198,0.396-0.198
			c0.821,0,2.376,0.057,2.518,0.057c0.113,0,1.726-0.057,2.489-0.057c0.283,0,0.396,0.057,0.396,0.198
			c0,0.085-0.113,0.198-0.198,0.198c-0.17,0-0.339,0-0.623,0.056c-0.679,0.142-0.82,0.481-0.877,1.33
			c-0.028,0.764-0.028,1.442-0.028,5.177V456.71z"/>
		<path fill="#151551" d="M488.759,445.987c0.311-0.792,0.424-0.933,0.594-0.933c0.254,0,0.339,0.339,0.594,0.877
			c0.453,1.018,4.442,10.947,5.969,14.597c0.905,2.15,1.584,2.462,2.122,2.632c0.368,0.112,0.736,0.141,0.991,0.141
			c0.141,0,0.311,0.057,0.311,0.198s-0.282,0.198-0.565,0.198c-0.368,0-2.207,0-3.933-0.057c-0.48-0.028-0.877-0.028-0.877-0.17
			c0-0.113,0.057-0.113,0.17-0.17c0.142-0.057,0.396-0.254,0.227-0.65l-2.235-5.517c-0.056-0.113-0.084-0.142-0.226-0.142h-5.743
			c-0.113,0-0.198,0.057-0.255,0.198l-1.415,3.848c-0.226,0.594-0.368,1.188-0.368,1.612c0,0.481,0.424,0.65,0.849,0.65h0.227
			c0.198,0,0.254,0.085,0.254,0.198c0,0.142-0.141,0.198-0.368,0.198c-0.594,0-1.952-0.085-2.235-0.085
			c-0.254,0-1.5,0.085-2.518,0.085c-0.312,0-0.481-0.057-0.481-0.198c0-0.113,0.113-0.198,0.226-0.198
			c0.17,0,0.538-0.028,0.736-0.057c1.131-0.141,1.612-0.99,2.093-2.206L488.759,445.987z M491.532,456.002
			c0.113,0,0.113-0.057,0.085-0.169l-2.461-6.592c-0.142-0.368-0.283-0.368-0.424,0l-2.32,6.592c-0.028,0.112,0,0.169,0.085,0.169
			H491.532z"/>
		<path fill="#151551" d="M500.781,463.357c-0.339-0.17-0.367-0.254-0.367-0.905c0-1.188,0.113-2.149,0.142-2.546
			c0-0.255,0.057-0.396,0.197-0.396c0.142,0,0.227,0.084,0.227,0.282s0,0.538,0.085,0.877c0.396,1.754,2.264,2.377,3.933,2.377
			c2.461,0,3.734-1.387,3.734-3.197c0-1.726-0.934-2.546-3.141-4.187l-1.132-0.849c-2.688-2.009-3.564-3.479-3.564-5.149
			c0-2.828,2.235-4.526,5.517-4.526c0.99,0,1.98,0.142,2.574,0.283c0.481,0.113,0.68,0.113,0.877,0.113
			c0.198,0,0.255,0.028,0.255,0.17c0,0.113-0.113,0.905-0.113,2.546c0,0.368-0.028,0.537-0.198,0.537
			c-0.169,0-0.197-0.112-0.226-0.311c-0.028-0.283-0.227-0.934-0.368-1.188c-0.17-0.283-0.99-1.188-3.225-1.188
			c-1.811,0-3.311,0.905-3.311,2.603c0,1.528,0.765,2.405,3.226,4.074l0.707,0.48c3.027,2.065,4.074,3.734,4.074,5.8
			c0,1.414-0.538,2.942-2.32,4.103c-1.047,0.679-2.603,0.849-3.961,0.849C503.243,464.009,501.799,463.839,500.781,463.357z"/>
		<path fill="#151551" d="M529.918,455.493c0,2.716,0,4.95,0.142,6.139c0.085,0.82,0.254,1.443,1.103,1.556
			c0.396,0.057,1.019,0.113,1.273,0.113c0.17,0,0.227,0.085,0.227,0.17c0,0.142-0.142,0.227-0.453,0.227
			c-1.556,0-3.338-0.085-3.479-0.085s-1.924,0.085-2.772,0.085c-0.311,0-0.452-0.057-0.452-0.227c0-0.085,0.057-0.17,0.226-0.17
			c0.255,0,0.595-0.057,0.85-0.113c0.565-0.112,0.707-0.735,0.82-1.556c0.141-1.188,0.141-3.423,0.141-6.139v-4.979
			c0-4.413,0-5.205-0.057-6.11c-0.056-0.962-0.339-1.442-0.961-1.584c-0.312-0.085-0.68-0.113-0.877-0.113
			c-0.113,0-0.227-0.057-0.227-0.17c0-0.17,0.142-0.226,0.452-0.226c0.934,0,2.716,0.084,2.857,0.084s1.924-0.084,2.772-0.084
			c0.312,0,0.453,0.056,0.453,0.226c0,0.113-0.113,0.17-0.227,0.17c-0.198,0-0.368,0.028-0.707,0.085
			c-0.765,0.142-0.99,0.622-1.047,1.612c-0.057,0.905-0.057,1.697-0.057,6.11V455.493z"/>
		<path fill="#151551" d="M540.384,460.416c0.057,1.979,0.283,2.574,0.962,2.744c0.452,0.112,1.019,0.141,1.245,0.141
			c0.112,0,0.197,0.085,0.197,0.198c0,0.142-0.169,0.198-0.452,0.198c-1.415,0-2.404-0.085-2.631-0.085s-1.273,0.085-2.405,0.085
			c-0.254,0-0.396-0.028-0.396-0.198c0-0.113,0.085-0.198,0.198-0.198c0.197,0,0.65-0.028,1.019-0.141
			c0.622-0.17,0.707-0.821,0.707-2.999v-13.777c0-0.962,0.142-1.217,0.339-1.217c0.283,0,0.708,0.481,0.962,0.736
			c0.396,0.396,4.018,4.243,7.865,8.204c2.461,2.546,5.12,5.403,5.884,6.195l-0.255-12.052c-0.028-1.556-0.169-2.094-0.934-2.235
			c-0.452-0.084-1.018-0.112-1.216-0.112c-0.17,0-0.198-0.142-0.198-0.227c0-0.142,0.198-0.17,0.48-0.17
			c1.132,0,2.32,0.057,2.604,0.057c0.282,0,1.103-0.057,2.121-0.057c0.255,0,0.453,0.028,0.453,0.17
			c0,0.085-0.113,0.227-0.283,0.227c-0.113,0-0.312,0-0.594,0.056c-0.82,0.17-0.877,0.651-0.877,2.094l-0.057,14.089
			c0,1.584-0.028,1.726-0.198,1.726c-0.255,0-0.509-0.198-1.896-1.472c-0.255-0.226-3.848-3.763-6.479-6.506
			c-2.886-3.027-5.687-5.97-6.45-6.818L540.384,460.416z"/>
		<path fill="#151551" d="M574.218,457.559c0-1.952-0.057-2.235-1.075-2.434c-0.197-0.028-0.622-0.057-0.849-0.057
			c-0.085,0-0.197-0.112-0.197-0.197c0-0.17,0.112-0.198,0.396-0.198c1.132,0,2.801,0.057,2.942,0.057
			c0.113,0,1.669-0.057,2.433-0.057c0.283,0,0.396,0.028,0.396,0.198c0,0.085-0.113,0.197-0.198,0.197c-0.17,0-0.34,0-0.622,0.057
			c-0.68,0.113-0.877,0.481-0.934,1.33c-0.028,0.764-0.028,1.471-0.028,2.489v2.688c0,1.104-0.028,1.132-0.34,1.302
			c-1.584,0.82-3.848,1.075-5.29,1.075c-1.896,0-5.432-0.227-8.204-2.575c-1.527-1.272-2.971-3.847-2.971-6.846
			c0-3.848,1.952-6.563,4.159-7.893c2.234-1.358,4.724-1.528,6.619-1.528c1.585,0,3.339,0.283,3.819,0.396
			c0.51,0.113,1.387,0.255,2.009,0.255c0.255,0,0.312,0.113,0.312,0.226c0,0.34-0.142,0.99-0.142,3.396
			c0,0.396-0.113,0.509-0.283,0.509c-0.142,0-0.17-0.142-0.17-0.368c-0.028-0.311-0.17-1.018-0.565-1.584
			c-0.622-0.905-2.518-1.867-5.743-1.867c-1.499,0-3.31,0.113-5.205,1.557c-1.442,1.103-2.461,3.253-2.461,6.054
			c0,3.395,1.754,5.827,2.631,6.648c1.98,1.839,4.073,2.518,6.365,2.518c0.877,0,2.037-0.085,2.688-0.453
			c0.311-0.17,0.509-0.282,0.509-0.735V457.559z"/>
		<path fill="#151551" d="M583.977,452.466c0-3.734,0-4.413-0.057-5.177c-0.057-0.82-0.198-1.217-1.019-1.33
			c-0.197-0.027-0.622-0.056-0.849-0.056c-0.085,0-0.197-0.113-0.197-0.198c0-0.142,0.112-0.198,0.396-0.198
			c1.132,0,2.744,0.057,2.886,0.057c0.17,0,5.375,0.028,5.94,0c0.481-0.028,0.934-0.113,1.132-0.142
			c0.113-0.028,0.227-0.113,0.34-0.113c0.085,0,0.113,0.113,0.113,0.227c0,0.17-0.142,0.452-0.198,1.132
			c-0.028,0.226-0.085,1.301-0.142,1.584c-0.028,0.113-0.113,0.255-0.227,0.255c-0.142,0-0.198-0.113-0.198-0.312
			c0-0.17-0.028-0.565-0.141-0.849c-0.17-0.396-0.425-0.565-1.782-0.735c-0.425-0.057-3.311-0.085-3.594-0.085
			c-0.112,0-0.141,0.085-0.141,0.255v6.534c0,0.17,0,0.255,0.141,0.255c0.312,0,3.594,0,4.159-0.057
			c0.594-0.057,0.962-0.085,1.217-0.339c0.169-0.17,0.282-0.312,0.367-0.312s0.142,0.057,0.142,0.198
			c0,0.141-0.142,0.537-0.198,1.329c-0.057,0.481-0.113,1.387-0.113,1.556c0,0.198-0.057,0.453-0.226,0.453
			c-0.113,0-0.17-0.085-0.17-0.227c0-0.227,0-0.48-0.113-0.792c-0.085-0.34-0.312-0.622-1.273-0.735
			c-0.679-0.085-3.338-0.113-3.763-0.113c-0.141,0-0.169,0.085-0.169,0.17v2.009c0,0.82-0.028,3.621,0,4.102
			c0.057,1.612,0.509,1.924,2.97,1.924c0.651,0,1.839,0,2.49-0.255c0.65-0.282,0.99-0.707,1.131-1.669
			c0.057-0.283,0.113-0.368,0.255-0.368s0.17,0.198,0.17,0.368s-0.198,1.811-0.34,2.32c-0.17,0.622-0.424,0.622-1.386,0.622
			c-1.867,0-3.311-0.057-4.328-0.085c-1.047-0.057-1.698-0.057-2.065-0.057c-0.057,0-0.538,0-1.075,0.028
			c-0.48,0.028-1.047,0.057-1.442,0.057c-0.255,0-0.396-0.057-0.396-0.198c0-0.085,0.057-0.198,0.198-0.198
			c0.227,0,0.537-0.085,0.764-0.113c0.481-0.084,0.537-0.565,0.65-1.272c0.142-0.99,0.142-2.886,0.142-5.205V452.466z"/>
		<path fill="#151551" d="M600.611,460.416c0.057,1.979,0.283,2.574,0.962,2.744c0.452,0.112,1.019,0.141,1.245,0.141
			c0.112,0,0.197,0.085,0.197,0.198c0,0.142-0.169,0.198-0.452,0.198c-1.415,0-2.404-0.085-2.631-0.085s-1.273,0.085-2.405,0.085
			c-0.254,0-0.396-0.028-0.396-0.198c0-0.113,0.085-0.198,0.198-0.198c0.197,0,0.65-0.028,1.019-0.141
			c0.622-0.17,0.707-0.821,0.707-2.999v-13.777c0-0.962,0.142-1.217,0.339-1.217c0.283,0,0.708,0.481,0.962,0.736
			c0.396,0.396,4.018,4.243,7.865,8.204c2.461,2.546,5.12,5.403,5.884,6.195l-0.255-12.052c-0.028-1.556-0.169-2.094-0.934-2.235
			c-0.452-0.084-1.018-0.112-1.216-0.112c-0.17,0-0.198-0.142-0.198-0.227c0-0.142,0.198-0.17,0.48-0.17
			c1.132,0,2.32,0.057,2.604,0.057c0.282,0,1.103-0.057,2.121-0.057c0.255,0,0.453,0.028,0.453,0.17
			c0,0.085-0.113,0.227-0.283,0.227c-0.113,0-0.312,0-0.594,0.056c-0.82,0.17-0.877,0.651-0.877,2.094l-0.057,14.089
			c0,1.584-0.028,1.726-0.198,1.726c-0.255,0-0.509-0.198-1.896-1.472c-0.255-0.226-3.848-3.763-6.479-6.506
			c-2.886-3.027-5.687-5.97-6.45-6.818L600.611,460.416z"/>
		<path fill="#151551" d="M624.827,456.71c0,2.319,0,4.215,0.113,5.205c0.084,0.707,0.169,1.16,0.905,1.272
			c0.367,0.057,0.905,0.113,1.131,0.113c0.142,0,0.198,0.113,0.198,0.198c0,0.113-0.113,0.198-0.396,0.198
			c-1.386,0-2.998-0.085-3.111-0.085c-0.142,0-1.697,0.085-2.461,0.085c-0.255,0-0.396-0.057-0.396-0.198
			c0-0.085,0.057-0.198,0.198-0.198c0.227,0,0.537-0.057,0.764-0.113c0.481-0.112,0.565-0.565,0.65-1.272
			c0.113-0.99,0.142-2.886,0.142-5.205v-4.244c0-3.734,0-4.413-0.057-5.177c-0.057-0.82-0.254-1.188-0.792-1.302
			c-0.283-0.056-0.594-0.084-0.764-0.084c-0.113,0-0.198-0.113-0.198-0.198c0-0.142,0.113-0.198,0.396-0.198
			c0.82,0,2.376,0.057,2.518,0.057c0.113,0,1.726-0.057,2.489-0.057c0.283,0,0.396,0.057,0.396,0.198
			c0,0.085-0.113,0.198-0.198,0.198c-0.17,0-0.34,0-0.622,0.056c-0.68,0.142-0.82,0.481-0.877,1.33
			c-0.028,0.764-0.028,1.442-0.028,5.177V456.71z"/>
		<path fill="#151551" d="M633.001,452.466c0-3.734,0-4.413-0.057-5.177c-0.057-0.82-0.198-1.217-1.019-1.33
			c-0.197-0.027-0.622-0.056-0.849-0.056c-0.085,0-0.198-0.113-0.198-0.198c0-0.142,0.113-0.198,0.396-0.198
			c1.132,0,2.744,0.057,2.886,0.057c0.17,0,5.375,0.028,5.94,0c0.481-0.028,0.934-0.113,1.132-0.142
			c0.113-0.028,0.227-0.113,0.34-0.113c0.085,0,0.113,0.113,0.113,0.227c0,0.17-0.142,0.452-0.198,1.132
			c-0.028,0.226-0.085,1.301-0.142,1.584c-0.028,0.113-0.113,0.255-0.227,0.255c-0.142,0-0.198-0.113-0.198-0.312
			c0-0.17-0.028-0.565-0.141-0.849c-0.17-0.396-0.425-0.565-1.782-0.735c-0.425-0.057-3.311-0.085-3.593-0.085
			c-0.113,0-0.142,0.085-0.142,0.255v6.534c0,0.17,0,0.255,0.142,0.255c0.311,0,3.593,0,4.158-0.057
			c0.594-0.057,0.962-0.085,1.217-0.339c0.169-0.17,0.282-0.312,0.367-0.312s0.142,0.057,0.142,0.198
			c0,0.141-0.142,0.537-0.198,1.329c-0.057,0.481-0.113,1.387-0.113,1.556c0,0.198-0.057,0.453-0.226,0.453
			c-0.113,0-0.17-0.085-0.17-0.227c0-0.227,0-0.48-0.113-0.792c-0.085-0.34-0.312-0.622-1.273-0.735
			c-0.679-0.085-3.338-0.113-3.763-0.113c-0.141,0-0.169,0.085-0.169,0.17v2.009c0,0.82-0.028,3.621,0,4.102
			c0.057,1.612,0.509,1.924,2.97,1.924c0.651,0,1.839,0,2.49-0.255c0.65-0.282,0.99-0.707,1.131-1.669
			c0.057-0.283,0.113-0.368,0.255-0.368s0.17,0.198,0.17,0.368s-0.198,1.811-0.34,2.32c-0.17,0.622-0.424,0.622-1.386,0.622
			c-1.867,0-3.311-0.057-4.328-0.085c-1.047-0.057-1.698-0.057-2.065-0.057c-0.057,0-0.538,0-1.075,0.028
			c-0.48,0.028-1.047,0.057-1.442,0.057c-0.255,0-0.396-0.057-0.396-0.198c0-0.085,0.057-0.198,0.198-0.198
			c0.227,0,0.537-0.085,0.764-0.113c0.48-0.084,0.537-0.565,0.65-1.272c0.142-0.99,0.142-2.886,0.142-5.205V452.466z"/>
		<path fill="#151551" d="M648.588,452.466c0-3.734,0-4.413-0.057-5.177c-0.057-0.82-0.198-1.217-1.019-1.33
			c-0.197-0.027-0.622-0.056-0.849-0.056c-0.085,0-0.197-0.113-0.197-0.198c0-0.142,0.112-0.198,0.396-0.198
			c1.132,0,2.801,0.057,2.942,0.057c0.255,0,2.348-0.057,3.111-0.057c1.585,0,3.339,0.142,4.64,1.047
			c0.623,0.452,1.726,1.612,1.726,3.281c0,1.782-0.735,3.508-3.055,5.488c2.036,2.546,3.763,4.725,5.205,6.224
			c1.33,1.358,2.15,1.585,2.772,1.669c0.48,0.085,0.735,0.085,0.877,0.085s0.227,0.113,0.227,0.198c0,0.142-0.142,0.198-0.595,0.198
			h-1.556c-1.414,0-2.037-0.142-2.659-0.481c-1.075-0.565-1.98-1.726-3.395-3.536c-1.047-1.301-2.15-2.857-2.688-3.508
			c-0.113-0.113-0.17-0.142-0.34-0.142l-3.168-0.057c-0.113,0-0.17,0.057-0.17,0.198v0.566c0,2.319,0,4.187,0.113,5.177
			c0.085,0.707,0.226,1.16,0.99,1.272c0.339,0.057,0.877,0.113,1.103,0.113c0.17,0,0.198,0.113,0.198,0.198
			c0,0.113-0.113,0.198-0.396,0.198c-1.358,0-2.942-0.085-3.056-0.085c-0.028,0-1.697,0.085-2.461,0.085
			c-0.255,0-0.396-0.057-0.396-0.198c0-0.085,0.057-0.198,0.198-0.198c0.227,0,0.537-0.057,0.764-0.113
			c0.481-0.112,0.537-0.565,0.65-1.272c0.142-0.99,0.142-2.886,0.142-5.205V452.466z M650.739,454.503
			c0,0.142,0.057,0.227,0.17,0.312c0.367,0.197,1.641,0.367,2.744,0.367c0.594,0,1.272-0.028,1.867-0.424
			c0.849-0.566,1.499-1.839,1.499-3.678c0-2.999-1.641-4.725-4.3-4.725c-0.736,0-1.528,0.085-1.782,0.142
			c-0.113,0.057-0.198,0.142-0.198,0.283V454.503z"/>
		<path fill="#151551" d="M669.862,456.71c0,2.319,0,4.215,0.113,5.205c0.084,0.707,0.169,1.16,0.905,1.272
			c0.367,0.057,0.905,0.113,1.131,0.113c0.142,0,0.198,0.113,0.198,0.198c0,0.113-0.113,0.198-0.396,0.198
			c-1.386,0-2.998-0.085-3.111-0.085c-0.142,0-1.697,0.085-2.461,0.085c-0.255,0-0.396-0.057-0.396-0.198
			c0-0.085,0.057-0.198,0.198-0.198c0.227,0,0.537-0.057,0.764-0.113c0.481-0.112,0.565-0.565,0.65-1.272
			c0.113-0.99,0.142-2.886,0.142-5.205v-4.244c0-3.734,0-4.413-0.057-5.177c-0.057-0.82-0.254-1.188-0.792-1.302
			c-0.283-0.056-0.594-0.084-0.764-0.084c-0.113,0-0.198-0.113-0.198-0.198c0-0.142,0.113-0.198,0.396-0.198
			c0.82,0,2.376,0.057,2.518,0.057c0.113,0,1.726-0.057,2.489-0.057c0.283,0,0.396,0.057,0.396,0.198
			c0,0.085-0.113,0.198-0.198,0.198c-0.17,0-0.34,0-0.622,0.056c-0.68,0.142-0.82,0.481-0.877,1.33
			c-0.028,0.764-0.028,1.442-0.028,5.177V456.71z M673.03,441.716c0.142,0.255,0,0.34-0.113,0.34c-0.085,0-0.367-0.057-0.849,0
			c-1.386,0.142-3.366,0.792-4.3,1.188c-0.198,0.084-0.368,0.141-0.425,0.141c-0.056,0-0.141-0.057-0.141-0.169
			c0-0.085,0.057-0.142,0.197-0.227c1.019-0.707,3.649-2.292,3.848-2.405c0.481-0.282,0.65-0.367,0.792-0.367
			c0.085,0,0.142,0.057,0.283,0.255C672.521,440.754,672.719,441.15,673.03,441.716z"/>
		<path fill="#151551" d="M682.394,445.987c0.312-0.792,0.425-0.933,0.594-0.933c0.255,0,0.34,0.339,0.595,0.877
			c0.452,1.018,4.441,10.947,5.969,14.597c0.905,2.15,1.584,2.462,2.122,2.632c0.367,0.112,0.735,0.141,0.99,0.141
			c0.141,0,0.311,0.057,0.311,0.198s-0.282,0.198-0.565,0.198c-0.368,0-2.207,0-3.933-0.057c-0.48-0.028-0.877-0.028-0.877-0.17
			c0-0.113,0.057-0.113,0.17-0.17c0.142-0.057,0.396-0.254,0.227-0.65l-2.235-5.517c-0.057-0.113-0.085-0.142-0.227-0.142h-5.742
			c-0.113,0-0.198,0.057-0.255,0.198l-1.414,3.848c-0.227,0.594-0.368,1.188-0.368,1.612c0,0.481,0.425,0.65,0.849,0.65h0.227
			c0.198,0,0.255,0.085,0.255,0.198c0,0.142-0.142,0.198-0.368,0.198c-0.594,0-1.952-0.085-2.235-0.085
			c-0.254,0-1.499,0.085-2.518,0.085c-0.311,0-0.48-0.057-0.48-0.198c0-0.113,0.113-0.198,0.227-0.198
			c0.169,0,0.537-0.028,0.735-0.057c1.132-0.141,1.612-0.99,2.093-2.206L682.394,445.987z M685.167,456.002
			c0.113,0,0.113-0.057,0.085-0.169l-2.461-6.592c-0.142-0.368-0.283-0.368-0.425,0l-2.319,6.592c-0.028,0.112,0,0.169,0.084,0.169
			H685.167z"/>
		<path fill="#151551" d="M708.476,455.55c0,4.158,0.113,5.969,0.622,6.479c0.453,0.452,1.188,0.65,3.395,0.65
			c1.5,0,2.744-0.028,3.424-0.849c0.367-0.453,0.65-1.16,0.735-1.697c0.028-0.227,0.085-0.368,0.255-0.368
			c0.141,0,0.169,0.113,0.169,0.425c0,0.311-0.197,2.009-0.424,2.829c-0.198,0.65-0.283,0.764-1.782,0.764
			c-2.037,0-3.508-0.057-4.696-0.085c-1.188-0.057-2.065-0.085-2.886-0.085c-0.113,0-0.594,0.028-1.16,0.028
			c-0.565,0.028-1.188,0.057-1.612,0.057c-0.311,0-0.452-0.057-0.452-0.227c0-0.085,0.057-0.17,0.226-0.17
			c0.255,0,0.595-0.057,0.849-0.113c0.566-0.112,0.708-0.735,0.821-1.556c0.141-1.188,0.141-3.423,0.141-6.139v-4.979
			c0-4.413,0-5.205-0.056-6.11c-0.057-0.962-0.283-1.414-1.217-1.612c-0.227-0.057-0.707-0.085-0.962-0.085
			c-0.113,0-0.227-0.057-0.227-0.17c0-0.17,0.142-0.226,0.453-0.226c1.272,0,3.055,0.084,3.196,0.084s2.207-0.084,3.056-0.084
			c0.311,0,0.452,0.056,0.452,0.226c0,0.113-0.113,0.17-0.227,0.17c-0.197,0-0.594,0.028-0.933,0.085
			c-0.821,0.142-1.047,0.622-1.104,1.612c-0.057,0.905-0.057,1.697-0.057,6.11V455.55z"/>
		<path fill="#151551" d="M722.195,452.466c0-3.734,0-4.413-0.057-5.177c-0.057-0.82-0.198-1.217-1.019-1.33
			c-0.197-0.027-0.622-0.056-0.849-0.056c-0.085,0-0.198-0.113-0.198-0.198c0-0.142,0.113-0.198,0.396-0.198
			c1.132,0,2.744,0.057,2.886,0.057c0.17,0,5.375,0.028,5.94,0c0.481-0.028,0.934-0.113,1.132-0.142
			c0.113-0.028,0.227-0.113,0.34-0.113c0.085,0,0.113,0.113,0.113,0.227c0,0.17-0.142,0.452-0.198,1.132
			c-0.028,0.226-0.085,1.301-0.142,1.584c-0.028,0.113-0.113,0.255-0.227,0.255c-0.142,0-0.198-0.113-0.198-0.312
			c0-0.17-0.028-0.565-0.141-0.849c-0.17-0.396-0.425-0.565-1.782-0.735c-0.425-0.057-3.311-0.085-3.593-0.085
			c-0.113,0-0.142,0.085-0.142,0.255v6.534c0,0.17,0,0.255,0.142,0.255c0.311,0,3.593,0,4.158-0.057
			c0.594-0.057,0.962-0.085,1.217-0.339c0.169-0.17,0.282-0.312,0.367-0.312s0.142,0.057,0.142,0.198
			c0,0.141-0.142,0.537-0.198,1.329c-0.057,0.481-0.113,1.387-0.113,1.556c0,0.198-0.057,0.453-0.226,0.453
			c-0.113,0-0.17-0.085-0.17-0.227c0-0.227,0-0.48-0.113-0.792c-0.085-0.34-0.312-0.622-1.273-0.735
			c-0.679-0.085-3.338-0.113-3.763-0.113c-0.141,0-0.169,0.085-0.169,0.17v2.009c0,0.82-0.028,3.621,0,4.102
			c0.057,1.612,0.509,1.924,2.97,1.924c0.651,0,1.839,0,2.49-0.255c0.65-0.282,0.99-0.707,1.131-1.669
			c0.057-0.283,0.113-0.368,0.255-0.368s0.17,0.198,0.17,0.368s-0.198,1.811-0.34,2.32c-0.17,0.622-0.424,0.622-1.386,0.622
			c-1.867,0-3.311-0.057-4.328-0.085c-1.047-0.057-1.698-0.057-2.065-0.057c-0.057,0-0.538,0-1.075,0.028
			c-0.48,0.028-1.047,0.057-1.442,0.057c-0.255,0-0.396-0.057-0.396-0.198c0-0.085,0.057-0.198,0.198-0.198
			c0.227,0,0.537-0.085,0.764-0.113c0.48-0.084,0.537-0.565,0.65-1.272c0.142-0.99,0.142-2.886,0.142-5.205V452.466z"/>
		<path fill="#151551" d="M738.829,460.416c0.057,1.979,0.283,2.574,0.962,2.744c0.452,0.112,1.019,0.141,1.245,0.141
			c0.112,0,0.197,0.085,0.197,0.198c0,0.142-0.169,0.198-0.452,0.198c-1.415,0-2.405-0.085-2.631-0.085
			c-0.227,0-1.273,0.085-2.405,0.085c-0.254,0-0.396-0.028-0.396-0.198c0-0.113,0.085-0.198,0.198-0.198
			c0.197,0,0.65-0.028,1.018-0.141c0.623-0.17,0.708-0.821,0.708-2.999v-13.777c0-0.962,0.142-1.217,0.339-1.217
			c0.283,0,0.708,0.481,0.962,0.736c0.396,0.396,4.018,4.243,7.865,8.204c2.461,2.546,5.12,5.403,5.884,6.195l-0.255-12.052
			c-0.028-1.556-0.169-2.094-0.934-2.235c-0.452-0.084-1.018-0.112-1.216-0.112c-0.17,0-0.198-0.142-0.198-0.227
			c0-0.142,0.198-0.17,0.48-0.17c1.132,0,2.32,0.057,2.604,0.057c0.282,0,1.103-0.057,2.121-0.057c0.255,0,0.453,0.028,0.453,0.17
			c0,0.085-0.113,0.227-0.283,0.227c-0.113,0-0.312,0-0.594,0.056c-0.82,0.17-0.877,0.651-0.877,2.094l-0.057,14.089
			c0,1.584-0.028,1.726-0.198,1.726c-0.255,0-0.51-0.198-1.896-1.472c-0.255-0.226-3.848-3.763-6.479-6.506
			c-2.886-3.027-5.687-5.97-6.45-6.818L738.829,460.416z"/>
		<path fill="#151551" d="M772.663,457.559c0-1.952-0.057-2.235-1.075-2.434c-0.197-0.028-0.622-0.057-0.849-0.057
			c-0.085,0-0.197-0.112-0.197-0.197c0-0.17,0.112-0.198,0.396-0.198c1.132,0,2.801,0.057,2.942,0.057
			c0.113,0,1.669-0.057,2.433-0.057c0.283,0,0.396,0.028,0.396,0.198c0,0.085-0.113,0.197-0.198,0.197c-0.17,0-0.34,0-0.622,0.057
			c-0.68,0.113-0.877,0.481-0.934,1.33c-0.028,0.764-0.028,1.471-0.028,2.489v2.688c0,1.104-0.028,1.132-0.34,1.302
			c-1.584,0.82-3.848,1.075-5.29,1.075c-1.896,0-5.432-0.227-8.204-2.575c-1.527-1.272-2.971-3.847-2.971-6.846
			c0-3.848,1.952-6.563,4.159-7.893c2.234-1.358,4.724-1.528,6.619-1.528c1.585,0,3.339,0.283,3.819,0.396
			c0.51,0.113,1.387,0.255,2.009,0.255c0.255,0,0.312,0.113,0.312,0.226c0,0.34-0.142,0.99-0.142,3.396
			c0,0.396-0.113,0.509-0.283,0.509c-0.142,0-0.17-0.142-0.17-0.368c-0.028-0.311-0.17-1.018-0.565-1.584
			c-0.622-0.905-2.518-1.867-5.743-1.867c-1.499,0-3.31,0.113-5.205,1.557c-1.442,1.103-2.461,3.253-2.461,6.054
			c0,3.395,1.754,5.827,2.631,6.648c1.98,1.839,4.073,2.518,6.365,2.518c0.877,0,2.036-0.085,2.688-0.453
			c0.311-0.17,0.509-0.282,0.509-0.735V457.559z"/>
		<path fill="#151551" d="M781.149,452.466c0-3.734,0-4.413-0.057-5.177s-0.198-1.217-1.019-1.33
			c-0.198-0.027-0.623-0.056-0.849-0.056c-0.085,0-0.198-0.113-0.198-0.198c0-0.142,0.113-0.198,0.396-0.198
			c1.132,0,2.632,0.057,2.857,0.057c0.227,0,1.782-0.057,2.519-0.057c0.282,0,0.424,0.057,0.424,0.198
			c0,0.085-0.113,0.198-0.227,0.198c-0.169,0-0.311,0-0.622,0.056c-0.65,0.113-0.792,0.538-0.849,1.33
			c-0.057,0.764-0.057,1.442-0.057,5.177v3.367c0,3.479,0.764,4.922,1.839,5.884c1.217,1.104,2.291,1.302,3.706,1.302
			c1.527,0,2.999-0.68,3.848-1.697c1.159-1.387,1.414-3.367,1.414-5.828v-3.027c0-3.734-0.028-4.413-0.057-5.177
			s-0.17-1.217-0.99-1.33c-0.198-0.027-0.622-0.056-0.849-0.056c-0.113,0-0.198-0.113-0.198-0.198c0-0.142,0.113-0.198,0.396-0.198
			c1.104,0,2.546,0.057,2.688,0.057c0.17,0,1.357-0.057,2.094-0.057c0.282,0,0.396,0.057,0.396,0.198
			c0,0.085-0.085,0.198-0.198,0.198c-0.169,0-0.311,0-0.622,0.056c-0.679,0.142-0.82,0.538-0.877,1.33
			c-0.057,0.764-0.028,1.442-0.028,5.177v2.574c0,2.604-0.339,5.517-2.319,7.214c-1.811,1.557-3.734,1.755-5.206,1.755
			c-0.82,0-3.423-0.057-5.177-1.698c-1.217-1.131-2.178-2.8-2.178-6.309V452.466z"/>
		<path fill="#151551" d="M806.467,445.987c0.312-0.792,0.424-0.933,0.594-0.933c0.255,0,0.34,0.339,0.595,0.877
			c0.452,1.018,4.441,10.947,5.969,14.597c0.905,2.15,1.584,2.462,2.122,2.632c0.367,0.112,0.735,0.141,0.99,0.141
			c0.141,0,0.311,0.057,0.311,0.198s-0.282,0.198-0.565,0.198c-0.368,0-2.207,0-3.933-0.057c-0.48-0.028-0.877-0.028-0.877-0.17
			c0-0.113,0.057-0.113,0.17-0.17c0.142-0.057,0.396-0.254,0.227-0.65l-2.235-5.517c-0.057-0.113-0.085-0.142-0.226-0.142h-5.743
			c-0.113,0-0.198,0.057-0.255,0.198l-1.414,3.848c-0.227,0.594-0.368,1.188-0.368,1.612c0,0.481,0.425,0.65,0.849,0.65h0.227
			c0.198,0,0.255,0.085,0.255,0.198c0,0.142-0.142,0.198-0.368,0.198c-0.594,0-1.952-0.085-2.234-0.085
			c-0.255,0-1.5,0.085-2.519,0.085c-0.311,0-0.48-0.057-0.48-0.198c0-0.113,0.113-0.198,0.227-0.198
			c0.169,0,0.537-0.028,0.735-0.057c1.131-0.141,1.612-0.99,2.093-2.206L806.467,445.987z M809.24,456.002
			c0.113,0,0.113-0.057,0.085-0.169l-2.461-6.592c-0.142-0.368-0.283-0.368-0.425,0l-2.319,6.592c-0.028,0.112,0,0.169,0.084,0.169
			H809.24z"/>
		<path fill="#151551" d="M822.592,458.237c0,3.904-0.085,5.403-0.82,7.101c-0.538,1.217-1.642,2.348-3.649,3.678
			c-0.34,0.227-0.765,0.48-1.019,0.622c-0.028,0-0.085,0.028-0.17,0.028c-0.057,0-0.17-0.028-0.17-0.142
			c0-0.141,0.085-0.254,0.312-0.396c0.311-0.17,0.65-0.453,0.877-0.65c1.612-1.613,2.376-2.857,2.376-9.053v-6.96
			c0-3.734,0-4.413-0.057-5.177c-0.057-0.82-0.198-1.217-1.019-1.33c-0.197-0.027-0.622-0.056-0.849-0.056
			c-0.085,0-0.197-0.113-0.197-0.198c0-0.142,0.112-0.198,0.396-0.198c1.132,0,2.744,0.057,2.886,0.057
			c0.113,0,1.669-0.057,2.433-0.057c0.283,0,0.396,0.057,0.396,0.198c0,0.085-0.113,0.198-0.198,0.198c-0.17,0-0.34,0-0.622,0.056
			c-0.68,0.142-0.82,0.481-0.877,1.33c-0.028,0.764-0.028,1.442-0.028,5.177V458.237z"/>
		<path fill="#151551" d="M830.766,452.466c0-3.734,0-4.413-0.057-5.177c-0.057-0.82-0.198-1.217-1.019-1.33
			c-0.197-0.027-0.622-0.056-0.849-0.056c-0.085,0-0.197-0.113-0.197-0.198c0-0.142,0.112-0.198,0.396-0.198
			c1.132,0,2.744,0.057,2.886,0.057c0.17,0,5.375,0.028,5.94,0c0.481-0.028,0.934-0.113,1.132-0.142
			c0.113-0.028,0.227-0.113,0.34-0.113c0.085,0,0.113,0.113,0.113,0.227c0,0.17-0.142,0.452-0.198,1.132
			c-0.028,0.226-0.085,1.301-0.142,1.584c-0.028,0.113-0.113,0.255-0.227,0.255c-0.142,0-0.198-0.113-0.198-0.312
			c0-0.17-0.028-0.565-0.141-0.849c-0.17-0.396-0.425-0.565-1.782-0.735c-0.425-0.057-3.311-0.085-3.594-0.085
			c-0.112,0-0.141,0.085-0.141,0.255v6.534c0,0.17,0,0.255,0.141,0.255c0.312,0,3.594,0,4.159-0.057
			c0.594-0.057,0.962-0.085,1.217-0.339c0.169-0.17,0.282-0.312,0.367-0.312s0.142,0.057,0.142,0.198
			c0,0.141-0.142,0.537-0.198,1.329c-0.057,0.481-0.113,1.387-0.113,1.556c0,0.198-0.057,0.453-0.226,0.453
			c-0.113,0-0.17-0.085-0.17-0.227c0-0.227,0-0.48-0.113-0.792c-0.085-0.34-0.312-0.622-1.273-0.735
			c-0.679-0.085-3.338-0.113-3.763-0.113c-0.141,0-0.169,0.085-0.169,0.17v2.009c0,0.82-0.028,3.621,0,4.102
			c0.057,1.612,0.509,1.924,2.97,1.924c0.651,0,1.839,0,2.49-0.255c0.65-0.282,0.99-0.707,1.131-1.669
			c0.057-0.283,0.113-0.368,0.255-0.368s0.17,0.198,0.17,0.368s-0.198,1.811-0.34,2.32c-0.17,0.622-0.424,0.622-1.386,0.622
			c-1.867,0-3.311-0.057-4.328-0.085c-1.047-0.057-1.698-0.057-2.065-0.057c-0.057,0-0.538,0-1.075,0.028
			c-0.48,0.028-1.047,0.057-1.442,0.057c-0.255,0-0.396-0.057-0.396-0.198c0-0.085,0.057-0.198,0.198-0.198
			c0.227,0,0.537-0.085,0.764-0.113c0.481-0.084,0.537-0.565,0.65-1.272c0.142-0.99,0.142-2.886,0.142-5.205V452.466z"/>
	</g>
	<g>
		<circle fill="#151551" cx="369.539" cy="454.25" r="2.445"/>
	</g>
	<g>
		<path fill="#151551" d="M520.789,454.25c0,1.35-1.1,2.443-2.445,2.443c-1.352,0-2.446-1.094-2.446-2.443s1.095-2.443,2.446-2.443
			C519.689,451.807,520.789,452.9,520.789,454.25z"/>
	</g>
	<g>
		<circle fill="#151551" cx="697.964" cy="454.25" r="2.444"/>
	</g>
</g>
</svg>
